<?xml version="1.0" standalone="no"?>
<!DOCTYPE svg PUBLIC "-//W3C//DTD SVG 1.1//EN" "http://www.w3.org/Graphics/SVG/1.1/DTD/svg11.dtd">
<svg version="1.1" xmlns="http://www.w3.org/2000/svg" xmlns:xlink="http://www.w3.org/1999/xlink"><metadata>This SVG WebFont was generated by YouWorkForThem.
</metadata><defs><font horiz-adv-x="400" id="ywftsvg"><font-face ascent="800" bbox="-55 -261 1114 1132.3" cap-height="860" descent="-200" font-family="" font-stretch="normal" font-weight="700" panose-1="0 0 0 0 0 0 0 0 0 0" underline-position="0" underline-thickness="0" unicode-range="U+0020-2212" units-per-em="1000" x-height="645"/><missing-glyph d="M513 1000v-1250h-397v1250h397zM416 148h-207v-142h207v142zM375 106v-58h-125v58h125zM416 364h-125v-70h43v29h41v-59h-125v100h-41v-141h207v141zM416 516h-41v-82h-166v-43h207v125zM416 591h-207v-41h82v-46h-82v-41h125v87h82v41zM291 713v-45h-41v45h41zM334 755 h-125v-130h207v43h-82v87zM416 916h-206v-41h81v-46h-82v-41h207v41h-82v46h82v41zM416 -22h-207v-42h87l-87 -58v-42h207v42h-127l87 58h40v42z" horiz-adv-x="625"/><glyph d="M513 1000v-1250h-397v1250h397zM416 148h-207v-142h207v142zM375 106v-58h-125v58h125zM416 364h-125v-70h43v29h41v-59h-125v100h-41v-141h207v141zM416 516h-41v-82h-166v-43h207v125zM416 591h-207v-41h82v-46h-82v-41h125v87h82v41zM291 713v-45h-41v45h41zM334 755 h-125v-130h207v43h-82v87zM416 916h-206v-41h81v-46h-82v-41h207v41h-82v46h82v41zM416 -22h-207v-42h87l-87 -58v-42h207v42h-127l87 58h40v42z" glyph-name=".notdef" horiz-adv-x="625"/><glyph glyph-name="glyph1" horiz-adv-x="0"/><glyph glyph-name="glyph2" horiz-adv-x="333"/><glyph glyph-name="space" horiz-adv-x="200" unicode=" "/><glyph glyph-name="space" horiz-adv-x="200" unicode=" "/><glyph d="M126 776q-4 39 18 61.5t61 22.5q38 0 60.5 -22.5t18.5 -61.5l-44 -496q-3 -32 -34 -32q-33 0 -36 32zM205 0q-31 0 -51.5 24t-20.5 60q0 37 20 60t52 23t52 -23t20 -60q0 -36 -20.5 -60t-51.5 -24z" glyph-name="exclam" unicode="!"/><glyph d="M73 876q51 0 51 -63q0 -78 -25 -163q-7 -25 -27 -25q-21 0 -28 25q-25 82 -25 163q0 63 54 63zM225 876q51 0 51 -63q0 -78 -25 -163q-7 -25 -27 -25q-21 0 -28 25q-25 83 -25 163q0 63 54 63z" glyph-name="quotedbl" horiz-adv-x="300" unicode="&quot;"/><glyph d="M132 524q-12 0 -17 7.5t-1 19.5l15 43q7 20 31 20h155l81 229q6 17 23 17h63q21 0 13 -21l-80 -225h185l81 229q6 17 23 17h63q21 0 13 -21l-80 -225h142q12 0 17 -7.5t1 -19.5l-15 -43q-8 -20 -31 -20h-146l-68 -191h154q12 0 17 -7.5t1 -19.5l-15 -43q-7 -20 -31 -20 h-158l-79 -223q-7 -20 -28 -20h-57q-23 0 -14 25l78 218h-185l-79 -223q-7 -20 -28 -20h-57q-23 0 -14 25l78 218h-139q-12 0 -17 7.5t-1 19.5l15 43q7 20 31 20h143l68 191h-151zM315 333h185l68 191h-185z" glyph-name="numbersign" horiz-adv-x="900" unicode="#"/><glyph d="M417 618q-10 74 -47 126t-88 67v-265q5 -4 33 -24t35.5 -26t32 -26t33 -30.5t27 -31.5t26 -38t17.5 -40.5t13.5 -48.5t3.5 -53q0 -98 -60.5 -163t-160.5 -78v-41q0 -25 -27 -25q-28 0 -28 25v38q-95 1 -153.5 28t-58.5 61q0 9 2 47.5t2 70.5q0 23 -2 51.5t-2 34.5 q0 25 23 25q19 0 24 -20q28 -113 66 -170t99 -66v324q-15 11 -49.5 36t-51.5 38t-43 38.5t-39.5 47.5t-23.5 54.5t-10 68.5q0 93 58.5 152t158.5 69v44q0 25 28 25q27 0 27 -25v-42q68 -3 124.5 -24t56.5 -49q0 -8 -1 -46t-1 -70l2 -78q0 -21 -19 -21q-22 0 -27 30zM159 722 q0 -71 68 -132v224q-32 -6 -50 -30.5t-18 -61.5zM282 47q70 17 70 106q0 97 -70 169v-275z" glyph-name="dollar" horiz-adv-x="500" unicode="$"/><glyph d="M230 -16l312 892h94l-312 -892h-94zM236 467q-76 0 -121 51.5t-45 137.5q0 82 45 131t121 49q75 0 120 -49t45 -131q0 -86 -45 -137.5t-120 -51.5zM236 510q62 0 62 146q0 137 -62 137q-63 0 -63 -137q0 -146 63 -146zM637 24q-76 0 -121 51.5t-45 137.5q0 82 45 131 t121 49q75 0 120 -49t45 -131q0 -86 -45 -137.5t-120 -51.5zM637 67q62 0 62 146q0 137 -62 137q-63 0 -63 -137q0 -146 63 -146z" glyph-name="percent" horiz-adv-x="800" unicode="%"/><glyph d="M644 88q15 -18 29 -27.5t23 -13t28 -7.5q20 -5 20 -21q0 -19 -21 -19q-11 0 -50 2.5t-67 2.5q-38 0 -87.5 -2.5t-55.5 -2.5q-19 0 -19 20q0 16 20 20q7 1 12 2.5t8 3.5t4.5 4t0.5 5t-2 5.5t-4.5 6t-6 6.5t-7.5 8t-8 9l-4 4q-68 -110 -205 -110q-109 0 -180 69t-71 176 q0 150 163 249q-77 124 -77 218q0 82 59.5 131t158.5 49q91 0 145.5 -44t54.5 -117q0 -59 -39 -111.5t-132 -107.5q37 -57 148 -202q32 75 32 106q0 28 -18.5 39.5t-64.5 20.5q-17 3 -17 24q0 9 6 15.5t12 6.5q1 0 39 -2t86 -2q44 0 82.5 2t42.5 2q18 0 18 -21t-22 -25 q-38 -7 -59 -24t-37 -59l-56 -142q58 -75 118 -147zM233 724q0 -92 67 -178q70 73 70 177q0 47 -17 72.5t-48 25.5t-51.5 -27.5t-20.5 -69.5zM145 245q0 -87 37 -139t98 -52q89 0 133 95q-133 166 -215 279q-53 -59 -53 -183z" glyph-name="ampersand" horiz-adv-x="750" unicode="&amp;"/><glyph d="M102 876q51 0 51 -63q0 -78 -25 -163q-7 -25 -27 -25q-21 0 -28 25q-25 83 -25 163q0 63 54 63z" glyph-name="quotesingle" horiz-adv-x="200" unicode="'"/><glyph d="M254 -101q-79 79 -129 211t-50 315q0 173 54.5 311.5t123.5 213.5q18 20 44 5q27 -15 16 -36q-46 -85 -74.5 -211.5t-28.5 -276.5q0 -296 104 -504q9 -18 -12 -34q-24 -17 -48 6z" glyph-name="parenleft" unicode="("/><glyph d="M124 -107q-21 16 -12 34q104 208 104 504q0 150 -28.5 276.5t-74.5 211.5q-11 21 16 36q26 15 44 -5q69 -75 123.5 -213.5t54.5 -311.5q0 -183 -50 -315t-129 -211q-24 -23 -48 -6z" glyph-name="parenright" unicode=")"/><glyph d="M347 788q20 -26 -22 -53q-35 -24 -71 -38q43 -19 71 -39q43 -26 20 -54q-17 -27 -57 0q-29 20 -48 41q6 -40 6 -62q0 -49 -32 -50q-35 0 -35 49q0 23 6 63q-23 -24 -47 -40q-39 -30 -59 -1q-22 27 21 54q28 19 73 39q-45 20 -72 38q-42 26 -22 53q19 31 59 2 q24 -17 47 -40q-6 40 -6 61q0 49 35 49q32 0 32 -49q0 -23 -6 -61q24 24 47 39q38 30 60 -1z" glyph-name="asterisk" unicode="*"/><glyph d="M36 327q0 21 25 21h148v150q0 25 21 25h36q23 0 23 -25v-150h147q25 0 25 -21v-34q0 -20 -25 -20h-147v-150q0 -25 -23 -25h-36q-21 0 -21 25v150h-148q-25 0 -25 20v34z" glyph-name="plus" horiz-adv-x="500" unicode="+"/><glyph d="M87 -127q-7 -6 -17.5 -6t-17.5 7q-15 15 -1 33q14 16 23 28t22 30.5t11.5 24.5t-8.5 10q-26 0 -42.5 19t-16.5 48q0 30 18.5 49.5t46.5 19.5q30 0 49.5 -22t19.5 -58q0 -103 -87 -183z" glyph-name="comma" horiz-adv-x="200" unicode=","/><glyph d="M168 326q0 22 25 22h207q25 0 25 -22v-36q0 -22 -25 -22h-207q-25 0 -25 22v36z" glyph-name="hyphen" horiz-adv-x="600" unicode="-"/><glyph d="M104 0q-31 0 -51.5 24t-20.5 60q0 37 20 60t52 23t52 -23t20 -60q0 -36 -20.5 -60t-51.5 -24z" glyph-name="period" horiz-adv-x="200" unicode="."/><glyph d="M130 -71q-7 -20 -28 -20h-57q-23 0 -14 25l335 967q6 17 23 17h63q21 0 13 -21z" glyph-name="slash" horiz-adv-x="600" unicode="/"/><glyph d="M348 -16q-140 0 -223.5 121.5t-83.5 323.5q0 203 83.5 325t223.5 122q139 0 222.5 -122t83.5 -325q0 -202 -83.5 -323.5t-222.5 -121.5zM348 44q121 0 121 385q0 387 -121 387q-122 0 -122 -387q0 -385 122 -385z" glyph-name="zero" horiz-adv-x="700" unicode="0"/><glyph d="M198 697q0 34 -31 34q-10 0 -27.5 -2.5t-20.5 -2.5q-7 0 -13 6t-6 17q0 18 17 23q154 42 224 83q8 5 16 5q16 0 16 -13v-736q0 -35 18 -48t53 -20q18 -3 18 -21q0 -22 -20 -22l-54 3q-55 3 -102 3q-35 0 -70.5 -1.5t-58.5 -3t-28 -1.5q-20 0 -20 22q0 18 18 21 q36 6 53.5 19.5t17.5 48.5v586z" glyph-name="one" horiz-adv-x="547" unicode="1"/><glyph d="M439 0q-12 0 -95 1.5t-144 1.5q-54 0 -134 -1.5t-96 -1.5q-17 0 -17 14q0 8 10 20q167 211 242.5 361t75.5 277q0 120 -99 120q-71 0 -138 -71q-16 -18 -30 -18q-19 0 -19 19q0 8 3 15q19 48 84 93.5t155 45.5q107 0 168.5 -60t61.5 -160q0 -78 -34.5 -152t-99.5 -152.5 t-194 -209.5h124q85 0 119 13.5t50 54.5q8 20 23 20q19 0 19 -21q0 -2 -1 -36t-1 -64q0 -33 1 -57.5t1 -26.5q0 -15 -7 -20t-28 -5z" glyph-name="two" horiz-adv-x="510" unicode="2"/><glyph d="M241 -16q-80 0 -131.5 30.5t-51.5 77.5q0 29 16 44.5t41 15.5q23 0 43 -16.5t34 -37t40.5 -37t61.5 -16.5q112 0 112 203q0 186 -121 186q-33 0 -69 -14t-37 -14q-13 0 -13 24q0 20 15 27q69 34 117.5 109t48.5 158q0 73 -58 73q-62 0 -130 -66q-22 -22 -42 -9 q-22 14 -4 40q32 46 94.5 80t142.5 34q84 0 130.5 -35.5t46.5 -100.5q0 -76 -51.5 -135t-123.5 -97q106 -8 175 -71t69 -160q0 -133 -97 -213t-258 -80z" glyph-name="three" horiz-adv-x="600" unicode="3"/><glyph d="M340 111v109h-314q-18 0 -18 16q0 7 9 21l368 593q6 10 18 10h76q6 0 8 -4t-2 -11l-369 -560h224v302q0 17 14 20l142 37q19 5 19 -10v-349h36q31 0 31 -32q0 -33 -31 -33h-36v-109q0 -35 14.5 -48t46.5 -20q18 -4 18 -22q0 -21 -19 -21q-1 0 -50.5 3t-97.5 3 q-49 0 -112 -3t-64 -3q-20 0 -20 21q0 19 18 22t28 5t24 7t21 11.5t12.5 18t5.5 26.5z" glyph-name="four" horiz-adv-x="600" unicode="4"/><glyph d="M301 -16q-96 0 -164.5 38.5t-68.5 91.5q0 26 14.5 42t38.5 16q20 0 36.5 -12.5t30 -30.5t29.5 -36t42.5 -30.5t61.5 -12.5q135 0 135 228q0 201 -141 201q-68 0 -144 -60q-17 -14 -34 -8t-14 24l70 408q3 17 21 17q123 -3 162 -3q74 0 179 3q13 0 13 -13v-123 q0 -20 -21 -20q-8 0 -47.5 3t-101 6.5t-122.5 3.5h-26q-13 0 -15 -13l-30 -176q-1 -9 3 -9t16 7q68 37 141 37q124 0 198 -74t74 -198q0 -140 -91.5 -223.5t-244.5 -83.5z" glyph-name="five" horiz-adv-x="700" unicode="5"/><glyph d="M240 293q0 -128 29 -191t80 -63q48 0 70.5 53t22.5 166q0 204 -87 204q-64 0 -112 -82q-3 -42 -3 -87zM70 290q0 182 120 344t295 237q24 10 35 -10q6 -9 3.5 -19.5t-12.5 -15.5q-208 -105 -256 -356q63 55 137 55q104 0 167 -70.5t63 -188.5q0 -128 -76 -205t-202 -77 t-200 81t-74 225z" glyph-name="six" horiz-adv-x="700" unicode="6"/><glyph d="M464 698q6 13 -7 13q-59 -1 -136 -4.5t-130 -6t-61 -2.5q-21 0 -21 20l3 129q0 13 13 13q124 -4 169 -3l303 3q22 0 13 -20q-211 -462 -345 -817q-12 -32 -46 -21q-36 11 -24 44q131 354 269 652z" glyph-name="seven" horiz-adv-x="600" unicode="7"/><glyph d="M334 -16q-118 0 -194.5 65.5t-76.5 165.5q0 69 46.5 130.5t123.5 106.5q-130 113 -130 222q0 88 68.5 145t173.5 57q109 0 174 -50.5t65 -134.5q0 -58 -45.5 -111.5t-122.5 -93.5q37 -28 56.5 -44t51 -46t47.5 -54t28.5 -58t12.5 -69q0 -105 -76 -168t-202 -63zM209 217 q0 -82 37 -127.5t104 -45.5q51 0 80.5 31.5t29.5 88.5q0 40 -12.5 74.5t-40.5 66t-54.5 54.5t-70.5 56q-32 -29 -52.5 -82t-20.5 -116zM255 717q0 -57 28.5 -101.5t86.5 -92.5q69 63 69 175q0 56 -23.5 87t-66.5 31t-68.5 -27t-25.5 -72z" glyph-name="eight" horiz-adv-x="700" unicode="8"/><glyph d="M456 565q0 128 -29 191t-80 63q-48 0 -70.5 -53t-22.5 -166q0 -204 87 -204q66 0 112 82q3 44 3 87zM74 592q0 128 75 205t197 77q128 0 204 -81.5t76 -224.5q0 -182 -115.5 -346t-279.5 -235q-24 -10 -35 10q-6 9 -3.5 19.5t12.5 15.5q193 99 237 358q-60 -57 -138 -57 q-104 0 -167 70.5t-63 188.5z" glyph-name="nine" horiz-adv-x="700" unicode="9"/><glyph d="M172 0q-31 0 -51.5 24t-20.5 60q0 37 20 60t52 23t52 -23t20 -60q0 -36 -20.5 -60t-51.5 -24zM172 312q-31 0 -51.5 24t-20.5 60q0 37 20 60t52 23t52 -23t20 -60q0 -36 -20.5 -60t-51.5 -24z" glyph-name="colon" horiz-adv-x="300" unicode=":"/><glyph d="M160 312q-31 0 -51.5 24t-20.5 60q0 37 20 60t52 23t52 -23t20 -60q0 -36 -20.5 -60t-51.5 -24zM140 -127q-7 -6 -17.5 -6t-17.5 7q-15 15 -1 33q14 16 23 28t22 30.5t11.5 24.5t-8.5 10q-26 0 -42.5 19t-16.5 48q0 30 18.5 49.5t46.5 19.5q30 0 49.5 -22t19.5 -58 q0 -103 -87 -183z" glyph-name="semicolon" horiz-adv-x="300" unicode=";"/><glyph d="M36 424q0 22 25 22h375q25 0 25 -22v-36q0 -22 -25 -22h-375q-25 0 -25 22v36zM36 234q0 22 25 22h375q25 0 25 -22v-36q0 -22 -25 -22h-375q-25 0 -25 22v36z" glyph-name="equal" horiz-adv-x="500" unicode="="/><glyph d="M206 243q-19 0 -29.5 18t-10.5 49q0 53 15.5 99.5t37.5 80.5t44.5 65.5t38 69.5t15.5 79q0 113 -65 113q-24 0 -42.5 -15.5t-28.5 -33.5t-28 -33.5t-41 -15.5q-29 0 -45 18t-16 45q0 39 41.5 66.5t102.5 27.5q121 0 194.5 -60.5t73.5 -159.5q0 -40 -23.5 -76t-57 -64.5 t-67 -59.5t-57 -76t-23.5 -99q0 -38 -29 -38zM207 167q31 0 51.5 -24t20.5 -60q0 -37 -20 -60t-52 -23t-52 23t-20 60q0 36 20.5 60t51.5 24z" glyph-name="question" horiz-adv-x="500" unicode="?"/><glyph d="M513 547q-49 0 -83 -74.5t-34 -184.5q0 -80 45 -80q35 0 66 45.5t47.5 105t16.5 110.5q0 78 -58 78zM1 353q0 205 148.5 339t376.5 134q192 0 307 -96.5t115 -257.5q0 -127 -84 -229.5t-202 -102.5q-93 0 -116 88q-27 -39 -67.5 -62.5t-88.5 -23.5q-69 0 -110.5 45 t-41.5 121q0 132 69 217.5t175 85.5q49 0 83.5 -23.5t45.5 -62.5l23 76h127l-89 -329q-8 -31 -8 -42q0 -19 22 -19q70 0 118.5 77.5t48.5 186.5q0 139 -80.5 210t-237.5 71q-179 0 -286.5 -110t-107.5 -292q0 -166 97 -258t272 -92q96 0 161 17.5t143 65.5l35 -52 q-132 -101 -339 -101q-221 0 -365 118.5t-144 300.5z" glyph-name="at" horiz-adv-x="1000" unicode="@"/><glyph d="M624 98q7 -27 21.5 -37t43.5 -16q21 -5 21 -24q0 -21 -20 -21q-2 0 -44 2t-88 2q-49 0 -105.5 -2t-58.5 -2q-21 0 -21 22q0 20 20 23q30 5 43 16t6 38l-48 185q-3 13 -21 13h-138q-17 0 -22 -13l-53 -186q-3 -9 -3 -19q0 -14 12.5 -21t44.5 -12q20 -3 20 -24 q0 -22 -21 -22q-3 0 -38.5 2t-70.5 2q-34 0 -66 -2t-34 -2q-19 0 -19 22q0 20 20 23q54 10 64 44l224 733q14 42 67 42q51 0 63 -42zM238 370q-4 -13 5 -13h124q9 0 6 13l-59 230q-5 18 -10 1z" glyph-name="A" horiz-adv-x="684" unicode="A"/><glyph d="M60 769q0 36 -59 47q-21 4 -21 23q0 21 22 21q4 0 54 -2t102 -2q36 0 91 2t70 2q116 0 186 -55t70 -147q0 -72 -42 -122.5t-118 -72.5q86 -20 140 -81.5t54 -140.5q0 -110 -77 -175.5t-205 -65.5l-169 2q-50 0 -101 -1t-55 -1q-22 0 -22 21q0 19 21 23q59 11 59 47v678z M235 118q0 -34 14.5 -48.5t49.5 -14.5q125 0 125 182q0 187 -133 187q-32 0 -44 -9.5t-12 -39.5v-257zM287 484q103 0 103 168q0 153 -105 153q-29 0 -39.5 -10.5t-10.5 -40.5v-223q0 -27 11.5 -37t40.5 -10z" glyph-name="B" horiz-adv-x="589" unicode="B"/><glyph d="M587 669q0 -18 -18 -18q-17 0 -24 18q-23 65 -63.5 106t-90.5 41q-89 0 -142.5 -105t-53.5 -281t56 -281t150 -105q55 0 89.5 42.5t63.5 127.5q7 21 23 21q20 0 20 -20q0 -10 -1 -37.5t-1 -50.5l2 -69q0 -28 -59 -51t-137 -23q-178 0 -284.5 121.5t-106.5 324.5 t104 324.5t277 121.5q79 0 137.5 -23t58.5 -51q0 -2 -1 -21t-1 -35t1 -42.5t1 -34.5z" glyph-name="C" horiz-adv-x="597" unicode="C"/><glyph d="M337 55q98 0 148.5 94.5t50.5 279.5t-51 280.5t-151 95.5q-44 0 -61.5 -14.5t-17.5 -56.5v-614q0 -40 20 -52.5t62 -12.5zM22 0q-22 0 -22 21q0 19 21 23q59 11 59 47v678q0 36 -59 47q-21 4 -21 23q0 21 22 21q4 0 23.5 -1t54.5 -2t75 -1q37 0 100.5 2t84.5 2 q171 0 266 -113.5t95 -317.5q0 -203 -95 -316t-266 -113q-20 0 -78.5 1.5t-91.5 1.5q-54 0 -108.5 -1.5t-59.5 -1.5z" glyph-name="D" horiz-adv-x="716" unicode="D"/><glyph d="M70 771q0 32 -54 44q-26 5 -26 23q0 9 7.5 15.5t19.5 6.5l84 -3q31 -1 189 -1q42 0 115 2t96 2q37 0 37 -30q0 -11 -1 -34.5t-1 -38.5l1 -74q0 -15 -17 -15q-18 0 -29 25q-47 109 -164 109q-43 0 -62.5 -12t-19.5 -46v-219q0 -25 8 -32t40 -7h47q62 0 87 90q7 23 23 23 q21 0 21 -23q0 -5 -2 -50.5t-2 -67.5q0 -20 2 -62t2 -48q0 -20 -19 -20t-25 22q-25 79 -87 79h-47q-33 0 -40.5 -6.5t-7.5 -32.5v-261q0 -39 21.5 -55t73.5 -16q70 0 104 35t57 104q8 25 25 25q20 0 20 -25l-2 -87q0 -18 1 -40t1 -29q0 -23 -12 -32t-39 -9q-18 0 -84.5 2 t-115.5 2q-167 0 -194 -1l-84 -3q-12 0 -19.5 6.5t-7.5 15.5q0 18 26 23q54 12 54 44v682z" glyph-name="E" horiz-adv-x="556" unicode="E"/><glyph d="M95 765q0 35 -54 47q-26 5 -26 25q0 23 27 23l84 -3q28 -1 164 -1q42 0 120 2t101 2q37 0 37 -30q0 -11 -1 -34.5t-1 -38.5l1 -73q0 -16 -16 -16q-14 0 -29 25q-32 52 -71.5 81.5t-103.5 29.5q-32 0 -44.5 -11t-12.5 -42v-245q0 -25 8 -32t40 -7h22q23 0 40.5 8.5 t28.5 24.5t16 27.5t10 28.5q7 23 25 23q21 0 21 -23q0 -4 -2 -46.5t-2 -71.5q0 -26 2 -65.5t2 -44.5q0 -20 -19 -20t-27 22q-5 16 -10.5 27t-16 25t-28 21t-40.5 7h-22q-33 0 -40.5 -6.5t-7.5 -32.5v-280q0 -22 15.5 -31.5t44.5 -16.5q19 -4 19 -23q0 -20 -20 -20 q-4 0 -24.5 1.5t-51.5 3t-63 1.5q-38 0 -73 -1.5t-56 -3t-25 -1.5q-20 0 -20 20q0 19 19 23t30 8.5t20.5 14.5t9.5 25v674z" glyph-name="F" horiz-adv-x="548" unicode="F"/><glyph d="M629 68q0 -31 -76 -57.5t-177 -26.5q-173 0 -277 119t-104 318q0 207 110 331t293 124q79 0 145 -24.5t66 -49.5q0 -1 -1 -30.5t-1 -57.5q0 -21 1 -42.5t1 -23.5q0 -17 -20 -17q-18 0 -24 17q-25 76 -67 122t-100 46q-99 0 -158.5 -108t-59.5 -287q0 -171 57 -274 t151 -103q71 0 71 61v181q0 41 -22.5 60t-58.5 28q-18 4 -18 22q0 21 19 21q3 0 59 -3t101 -3t101 3t59 3q19 0 19 -21q0 -19 -18 -22q-34 -6 -52.5 -25.5t-18.5 -62.5v-218z" glyph-name="G" horiz-adv-x="713" unicode="G"/><glyph d="M459 769q0 22 -15.5 31.5t-44.5 16.5q-19 4 -19 23q0 20 20 20l50 -3q50 -3 99 -3q46 0 95 3l49 3q20 0 20 -20q0 -19 -19 -23t-30 -8.5t-20.5 -14.5t-9.5 -25v-678q0 -22 15.5 -31.5t44.5 -16.5q19 -4 19 -23q0 -20 -20 -20l-49 3q-49 3 -95 3q-49 0 -99 -3l-50 -3 q-20 0 -20 20q0 19 19 23t30 8.5t20.5 14.5t9.5 25v305q0 13 -13 13h-179q-13 0 -13 -13v-305q0 -22 15.5 -31.5t44.5 -16.5q19 -4 19 -23q0 -20 -20 -20q-4 0 -24.5 1.5t-51.5 3t-63 1.5q-38 0 -72.5 -1.5t-55.5 -3t-26 -1.5q-20 0 -20 20q0 19 19 23t30 8.5t20.5 14.5 t9.5 25v678q0 15 -9.5 25t-20.5 14.5t-30 8.5t-19 23q0 20 20 20q5 0 25 -1.5t52.5 -3t66.5 -1.5q49 0 99 3l50 3q20 0 20 -20q0 -19 -19 -23q-18 -4 -29 -8.5t-21 -14.5t-10 -25v-277q0 -13 14 -13h178q13 0 13 14v276z" glyph-name="H" horiz-adv-x="713" unicode="H"/><glyph d="M77 769q0 22 -15.5 31.5t-44.5 16.5q-19 4 -19 23q0 20 20 20q4 0 25 -1.5t55 -3t71 -1.5q33 0 65 1.5t52.5 3t24.5 1.5q20 0 20 -20q0 -19 -19 -23t-30 -8.5t-20.5 -14.5t-9.5 -25v-678q0 -22 15.5 -31.5t44.5 -16.5q19 -4 19 -23q0 -20 -20 -20q-4 0 -24.5 1.5t-52.5 3 t-65 1.5q-37 0 -71 -1.5t-55 -3t-25 -1.5q-20 0 -20 20q0 19 19 23t30 8.5t20.5 14.5t9.5 25v678z" glyph-name="I" horiz-adv-x="328" unicode="I"/><glyph d="M213 749q0 35 -12.5 48.5t-38.5 19.5q-18 4 -18 23q0 20 19 20q2 0 48.5 -3t86.5 -3q46 0 95 3t50 3q19 0 19 -20q0 -19 -18 -23q-14 -3 -23 -6.5t-19 -10.5t-14.5 -19.5t-4.5 -31.5v-615q0 -135 -64.5 -222.5t-164.5 -87.5q-59 0 -94 22t-35 59q0 20 12.5 32.5 t32.5 12.5q17 0 30.5 -12.5t21 -28t20 -28t27.5 -12.5q26 0 35 46t9 151v683z" glyph-name="J" horiz-adv-x="462" unicode="J"/><glyph d="M462 761q11 14 13 22.5t-5.5 15t-20 11t-37.5 9.5q-16 4 -16 21q0 9 5 14.5t12 5.5q5 0 53.5 -2.5t88.5 -2.5q37 0 82 2.5t49 2.5q17 0 17 -18q0 -17 -15 -20q-45 -11 -65.5 -19t-36.5 -29l-209 -267q-8 -9 -1 -21l251 -386q30 -45 99 -60q20 -5 20 -21q0 -19 -21 -19 q-12 0 -57.5 2.5t-79.5 2.5q-32 0 -87 -2.5t-72 -2.5q-18 0 -18 20q0 16 20 20q30 6 36.5 15t-6.5 32l-170 261q-17 26 -34 6q-13 -16 -13 -46v-197q0 -24 10.5 -39.5t21.5 -20t29 -8.5t18 -22q0 -21 -19 -21q-4 0 -51 3t-89 3q-39 0 -84.5 -3t-50.5 -3q-19 0 -19 21 q0 18 18 22t29 8.5t21.5 20t10.5 39.5v638q0 35 -15.5 48t-45.5 20q-18 4 -18 23q0 20 19 20q5 0 50.5 -3t84.5 -3q42 0 89 3t51 3q19 0 19 -20q0 -19 -18 -23q-14 -3 -22 -6.5t-18.5 -10.5t-15.5 -20t-5 -31v-254q0 -18 11 -4z" glyph-name="K" horiz-adv-x="711" unicode="K"/><glyph d="M79 769q0 22 -15.5 31.5t-44.5 16.5q-19 4 -19 23q0 20 20 20q4 0 25 -1.5t55 -3t71 -1.5q33 0 65 1.5t52.5 3t24.5 1.5q20 0 20 -20q0 -19 -19 -23t-30 -8.5t-20.5 -14.5t-9.5 -25v-645q0 -38 19.5 -52t62.5 -14q118 0 164 139q8 25 23 25q17 0 17 -25l-2 -87 q0 -18 1 -40t1 -29q0 -23 -12 -32t-39 -9q-18 0 -89.5 2t-120.5 2q-145 0 -169 -1l-84 -3q-12 0 -19.5 6.5t-7.5 15.5q0 18 26 23q54 12 54 44v680z" glyph-name="L" horiz-adv-x="540" unicode="L"/><glyph d="M582 575q0 21 -6 0q-82 -279 -130 -414q-14 -41 -26.5 -56t-40.5 -15t-42.5 16t-28.5 55q-64 177 -133 416q-6 23 -6 -1l-10 -465q0 -19 5.5 -31.5t18.5 -19.5t24 -10t31 -7q18 -3 18 -22q0 -21 -19 -21q-3 0 -40 3t-72 3q-34 0 -73.5 -3t-42.5 -3q-19 0 -19 21 q0 18 18 22q13 3 22 6t18.5 10.5t15 20t5.5 31.5l14 647q1 25 -11.5 36.5t-45.5 18.5q-22 5 -22 25q0 22 19 22q1 0 37 -1t83 -1q23 0 48.5 1t29.5 1q19 0 27 -6t15 -30l150 -493q6 -21 11 0l141 494q6 23 13 29t23 6q3 0 33.5 -1t56.5 -1q36 0 63 0.5t41.5 1t19.5 0.5 q10 0 15.5 -6.5t5.5 -14.5q0 -19 -19 -23q-32 -7 -48.5 -19t-15.5 -39l13 -647q0 -24 10 -39t20.5 -19.5t30.5 -9.5q18 -4 18 -22q0 -21 -19 -21q-2 0 -48.5 3t-91.5 3q-46 0 -90 -3l-45 -3q-19 0 -19 21q0 18 18 22q24 6 33 18.5t8 49.5z" glyph-name="M" horiz-adv-x="835" unicode="M"/><glyph d="M590 80q0 -82 -65 -82q-36 0 -58 21t-49 77l-240 491q-14 28 -14 -3v-473q0 -23 15 -38t28.5 -20t35.5 -10q18 -4 18 -22q0 -21 -19 -21q-6 0 -41.5 3t-69.5 3q-32 0 -72.5 -3t-44.5 -3q-19 0 -19 21q0 18 18 22t29 8.5t21.5 20t10.5 39.5v655q0 23 -12.5 32t-42.5 16 q-21 5 -21 25q0 21 19 21q2 0 33.5 -1t68.5 -1q31 0 63 1t33 1q12 0 19 -8t19 -33l233 -475q14 -28 14 4v401q0 19 -6 31.5t-19 19.5t-24 10t-32 7q-18 3 -18 23t19 20q3 0 42.5 -3t80.5 -3q34 0 59.5 1.5t38 3t17.5 1.5q19 0 19 -20q0 -19 -18 -23q-22 -5 -34 -10 t-23.5 -20t-11.5 -38v-669z" glyph-name="N" horiz-adv-x="672" unicode="N"/><glyph d="M352 -16q-162 0 -259.5 121.5t-97.5 323.5q0 203 97.5 325t259.5 122t259 -122t97 -325t-97 -324t-259 -121zM352 44q81 0 126 101.5t45 283.5q0 183 -45 285t-126 102q-82 0 -127 -102t-45 -285q0 -182 45 -283.5t127 -101.5z" glyph-name="O" horiz-adv-x="703" unicode="O"/><glyph d="M80 764q0 41 -59 52q-21 4 -21 24t22 20q2 0 48 -2t92 -2q44 0 104 2t73 2q121 0 193.5 -67.5t72.5 -180.5q0 -125 -67.5 -200.5t-179.5 -75.5q-45 0 -85 22q-18 11 -18 -10v-257q0 -22 15.5 -31.5t44.5 -16.5q19 -4 19 -23q0 -20 -20 -20q-4 0 -24.5 1.5t-52.5 3 t-65 1.5q-37 0 -71 -1.5t-55 -3t-25 -1.5q-20 0 -20 20q0 19 19 23t30 8.5t20.5 14.5t9.5 25v673zM255 466q0 -70 69 -70q51 0 73.5 50t22.5 163q0 101 -28 148.5t-86 47.5q-26 0 -38.5 -8t-12.5 -29v-302z" glyph-name="P" horiz-adv-x="590" unicode="P"/><glyph d="M584 -33q30 0 59 9.5t30 9.5q17 0 5 -25q-5 -10 -14 -23.5t-25.5 -31.5t-40 -30t-49.5 -12q-39 0 -124 35t-140 35q-45 0 -93.5 -20t-56.5 -20q-7 0 -10 5t1 13q10 19 40 48.5t66 49.5q-104 45 -163 154.5t-59 264.5q0 203 97.5 325t259.5 122t259 -122t97 -325 q0 -168 -67.5 -281.5t-186.5 -149.5q70 -31 115 -31zM367 44q81 0 126 101.5t45 283.5q0 183 -45 285t-126 102q-82 0 -127 -102t-45 -285q0 -182 45 -283.5t127 -101.5z" glyph-name="Q" horiz-adv-x="733" unicode="Q"/><glyph d="M80 769q0 36 -59 47q-21 4 -21 23q0 21 22 21q6 0 22.5 -1t49.5 -2t79 -1q42 0 97.5 2t68.5 2q121 0 193.5 -60.5t72.5 -160.5q0 -73 -38.5 -128.5t-109.5 -85.5q48 -25 113 -200q33 -91 58 -142q9 -19 22.5 -26.5t41.5 -13.5q20 -5 20 -23q0 -20 -20 -20q-5 0 -35.5 1 t-55.5 1q-22 0 -44.5 -0.5t-36.5 -1t-17 -0.5q-35 0 -46 24q-43 98 -74 195q-42 133 -52 152q-17 30 -47 30q-29 0 -29 -24v-286q0 -22 15.5 -31.5t44.5 -16.5q19 -4 19 -23q0 -20 -20 -20q-4 0 -24.5 1.5t-52.5 3t-65 1.5q-37 0 -71 -1.5t-55 -3t-25 -1.5q-20 0 -20 20 q0 19 19 23t30 8.5t20.5 14.5t9.5 25v678zM321 449q99 0 99 184q0 172 -119 172q-46 0 -46 -38v-264q0 -32 16 -43t50 -11z" glyph-name="R" horiz-adv-x="677" unicode="R"/><glyph d="M417 618q-12 87 -59.5 142.5t-111.5 55.5q-40 0 -63.5 -25.5t-23.5 -68.5q0 -39 19 -73t49.5 -60t67 -52t73 -55t67 -63t49.5 -83t19 -108q0 -110 -74.5 -177t-192.5 -67q-99 0 -160 27t-61 62q0 9 2 47.5t2 70.5q0 23 -2 51.5t-2 34.5q0 25 23 25q19 0 24 -20 q31 -124 74.5 -181t116.5 -57q47 0 73 28.5t26 80.5t-19 95t-49 72.5t-66.5 56.5l-73 54t-66.5 56.5t-49 72t-19 93.5q0 101 69 162t184 61q71 0 135.5 -21t64.5 -52q0 -8 -1 -46t-1 -70l2 -78q0 -21 -19 -21q-22 0 -27 30z" glyph-name="S" horiz-adv-x="508" unicode="S"/><glyph d="M235 752q0 45 -44 45q-31 0 -54.5 -9.5t-38.5 -27.5t-23 -34.5t-16 -40.5q-9 -27 -28 -27q-20 0 -20 20l1 72l-2 80q0 30 37 30q15 0 110 -6t166 -6t168.5 6t106.5 6q37 0 37 -30l-2 -80l1 -72q0 -20 -18 -20q-19 0 -28 27q-17 51 -46 81.5t-88 30.5q-44 0 -44 -45v-651 q0 -28 16.5 -40t43.5 -18q19 -4 19 -22q0 -21 -20 -21q-4 0 -24.5 1.5t-53.5 3t-68 1.5t-68.5 -1.5t-54 -3t-24.5 -1.5q-20 0 -20 21q0 18 19 22q18 4 29 8.5t21 17t10 32.5v651z" glyph-name="T" horiz-adv-x="646" unicode="T"/><glyph d="M539 759q0 20 -10.5 33.5t-20.5 17.5t-25 7q-23 5 -23 24t23 19q2 0 34 -3t69 -3t67 3t32 3q23 0 23 -19t-23 -24q-15 -3 -25 -7t-20.5 -17.5t-10.5 -33.5v-538q0 -112 -63.5 -174.5t-178.5 -62.5q-145 0 -226.5 63t-81.5 184v528q0 20 -10.5 33.5t-20.5 17.5t-25 7 q-23 5 -23 24t23 19q5 0 25 -1.5t54 -3t72 -1.5q36 0 66 1.5t47.5 3t22.5 1.5q23 0 23 -19t-23 -24q-15 -3 -25 -7t-20.5 -17.5t-10.5 -33.5v-538q0 -172 151 -172q134 0 134 162v548z" glyph-name="U" horiz-adv-x="707" unicode="U"/><glyph d="M93 759q-9 26 -23 37t-44 18q-21 5 -21 25q0 10 6 16t14 6q5 0 26 -1.5t55.5 -3t73.5 -1.5q50 0 99 2.5t51 2.5q22 0 22 -22q0 -18 -19 -24q-37 -12 -49 -28.5t-1 -50.5l145 -465q5 -19 10 0l137 468q11 37 -4.5 52.5t-59.5 24.5q-19 3 -19 23q0 22 20 22q2 0 40 -2 t82 -2q43 0 78 2l35 2q20 0 20 -21q0 -19 -22 -25q-30 -8 -45.5 -21t-25.5 -45l-215 -700q-15 -48 -61 -48q-53 0 -69 48z" glyph-name="V" horiz-adv-x="762" unicode="V"/><glyph d="M457 757q-9 26 -23.5 37.5t-44.5 18.5q-20 5 -20 25q0 22 19 22q2 0 47 -2.5t95 -2.5q43 0 81 1.5t61 2.5t27 1q21 0 21 -23q0 -21 -18 -24q-45 -7 -57.5 -21.5t-3.5 -44.5l135 -462q4 -11 8 0l124 451q10 36 -5 53t-58 24q-21 3 -21 24q0 23 21 23q2 0 42.5 -2t80.5 -2 q32 0 59.5 1t44.5 2.5t21 1.5q9 0 15 -7t6 -17q0 -20 -19 -24q-47 -12 -66 -27t-30 -54l-187 -684q-14 -48 -61 -48q-49 0 -64 48l-104 319q-4 12 -8 1l-100 -320q-15 -48 -66 -48q-53 0 -70 48l-245 709q-9 26 -23 37t-45 19q-21 5 -21 25q0 22 20 22q1 0 51 -2.5t95 -2.5 q53 0 107.5 2.5t56.5 2.5q21 0 21 -23q0 -21 -20 -24q-44 -7 -55 -20.5t-1 -44.5l160 -484q5 -14 8 0l82 232q6 18 1 33z" glyph-name="W" horiz-adv-x="1089" unicode="W"/><glyph d="M233 104q-15 -25 -2.5 -39.5t56.5 -21.5q20 -3 20 -22q0 -21 -18 -21q-5 0 -57 1.5t-83 1.5q-32 0 -75.5 -1.5t-47.5 -1.5q-21 0 -21 21q0 18 20 22q41 8 62.5 18t34.5 34l172 314q4 9 0 16l-174 333q-14 27 -31.5 38t-53.5 21q-22 5 -22 24t19 19q5 0 60 -2t97 -2 q51 0 106 2t59 2q20 0 20 -19t-21 -24q-37 -9 -45 -26.5t8 -44.5l81 -158q6 -12 12 0l85 166q14 28 4.5 41.5t-47.5 23.5q-21 5 -21 23t17 18q5 0 48.5 -2t80.5 -2q32 0 78 2t50 2q18 0 18 -18q0 -19 -19 -23q-47 -11 -67 -23t-37 -44l-140 -267q-4 -7 1 -17l188 -366 q10 -19 28 -31.5t34 -17t44 -10.5q23 -4 23 -23q0 -20 -18 -20q-3 0 -53 1.5t-104 1.5q-31 0 -103 -1.5t-84 -1.5q-19 0 -19 21q0 18 19 21q38 8 49.5 21.5t-1.5 38.5l-108 205q-6 12 -12 0z" glyph-name="X" horiz-adv-x="752" unicode="X"/><glyph d="M539 747q15 32 4 47t-54 23q-21 3 -21 23q0 9 5.5 14.5t12.5 5.5q2 0 42 -2.5t84 -2.5q42 0 79 2.5t38 2.5q19 0 19 -19q0 -17 -20 -22q-25 -6 -37.5 -10.5t-26.5 -17t-24 -33.5l-163 -342v-325q0 -22 15.5 -31.5t44.5 -16.5q19 -4 19 -23q0 -20 -20 -20q-4 0 -24.5 1.5 t-52.5 3t-65 1.5q-37 0 -71 -1.5t-55 -3t-25 -1.5q-20 0 -20 20q0 19 19 23t30 8.5t20.5 14.5t9.5 25v276l-202 398q-13 24 -29.5 34.5t-46.5 17.5q-24 6 -24 23q0 9 6 14.5t14 5.5q3 0 52.5 -2.5t101.5 -2.5q64 0 117.5 2.5t55.5 2.5q8 0 14 -5.5t6 -14.5q0 -18 -22 -23 q-37 -9 -45.5 -26.5t7.5 -48.5l111 -229q6 -12 12 0z" glyph-name="Y" horiz-adv-x="748" unicode="Y"/><glyph d="M301 856q68 0 167.5 2t112.5 2q19 0 19 -16q0 -7 -4 -15l-377 -750q-9 -16 10 -16h124q100 0 135 29t52 105q6 25 25 25q22 0 22 -25l-2 -87q0 -18 1 -40t1 -29q0 -23 -12 -32t-39 -9q-11 0 -104 1.5t-165 1.5q-69 0 -157.5 -1.5t-99.5 -1.5q-17 0 -17 13q0 5 4 13 l379 754q9 16 -10 16h-111q-47 0 -78.5 -7.5t-49.5 -25t-26 -31.5t-18 -39t-27 -25q-22 0 -22 21q0 10 1 31.5t1 36.5t-1 38.5t-1 34.5q0 30 37 30q20 0 105.5 -2t124.5 -2z" glyph-name="Z" horiz-adv-x="590" unicode="Z"/><glyph d="M75 963q0 13 14 13h175q28 0 28 -29q0 -30 -28 -30h-56q-13 0 -13 -13v-949q0 -13 14 -13h55q28 0 28 -30q0 -29 -28 -29h-176q-13 0 -13 14v1066z" glyph-name="bracketleft" horiz-adv-x="300" unicode="["/><glyph d="M100 897q-8 21 13 21h63q17 0 23 -17l335 -967q9 -25 -14 -25h-57q-21 0 -28 20z" glyph-name="backslash" horiz-adv-x="600" unicode="\"/><glyph d="M238 976q13 0 13 -13v-1067q0 -13 -13 -13h-176q-28 0 -28 29q0 30 28 30h56q13 0 13 14v948q0 13 -13 13h-56q-28 0 -28 30q0 29 28 29h176z" glyph-name="bracketright" horiz-adv-x="300" unicode="]"/><glyph d="M510 -16q19 0 29.5 -12.5t10.5 -32.5t-10.5 -32.5t-29.5 -12.5h-396q-18 0 -29 13t-11 32t11 32t29 13h396z" glyph-name="underscore" horiz-adv-x="600" unicode="_"/><glyph d="M0 130q0 87 73.5 158t210.5 120q13 4 13 18v100q0 49 -6.5 69t-25.5 20q-21 0 -39.5 -22.5t-42.5 -72.5q-14 -29 -23 -43.5t-25 -26t-36 -11.5q-25 0 -39.5 15.5t-14.5 41.5q0 54 74.5 109.5t157.5 55.5t132.5 -38t49.5 -113v-411q0 -42 22 -42q9 0 22 8q14 8 23 2 q9 -7 3 -23q-7 -21 -33 -32.5t-61 -11.5q-30 0 -59.5 12t-47.5 32q-4 5 -9 0q-62 -59 -159 -59q-71 0 -115.5 38.5t-44.5 106.5zM161 136q0 -87 64 -87q33 0 52.5 29.5t19.5 75.5v193q0 8 -9 5q-66 -33 -96.5 -94t-30.5 -122z" glyph-name="a" horiz-adv-x="521" unicode="a"/><glyph d="M212 130q0 -91 95 -91q68 0 98 68.5t30 224.5q0 140 -27 202t-88 62q-49 0 -78.5 -36.5t-29.5 -89.5v-340zM-5 885q0 16 20 19q36 5 86.5 22t78.5 36q12 8 19 8q13 0 13 -14v-329q0 -8 8 -2q55 36 116 36q117 0 193 -88t76 -232q0 -167 -77.5 -262t-205.5 -95 q-55 0 -113.5 14t-69.5 14q-32 0 -51 -21q-9 -10 -21 -10q-19 0 -19 21q0 4 2 20t2 30v767q0 24 -9.5 33t-28.5 12t-19 21z" glyph-name="b" horiz-adv-x="605" unicode="b"/><glyph d="M449 479q0 -13 -17 -13q-13 0 -20 15q-27 62 -56.5 93.5t-70.5 31.5q-61 0 -95.5 -72t-34.5 -201q0 -139 42 -210.5t123 -71.5q50 0 96 38q10 8 17 8t14 -7t7 -14q0 -8 -6 -15q-57 -77 -164 -77q-130 0 -214.5 93.5t-84.5 237.5q0 151 84.5 248.5t214.5 97.5 q66 0 115.5 -26t49.5 -55q0 -5 -1 -19t-1 -26t1 -31.5t1 -24.5z" glyph-name="c" horiz-adv-x="464" unicode="c"/><glyph d="M568 147q0 -28 8.5 -40.5t32.5 -21.5q16 -6 16 -19q0 -15 -20 -18q-47 -7 -98 -23t-72 -35q-6 -6 -14 -6q-13 0 -13 14v35q0 10 -7 1q-52 -50 -129 -50q-120 0 -191 87.5t-71 242.5q0 156 81 251.5t210 95.5q56 0 96 -27q11 -8 11 5v189q0 23 -9 32.5t-29 14.5 q-19 5 -19 21t21 19q119 17 165 57q9 8 18 8q13 0 13 -14v-819zM180 324q0 -269 132 -269q44 0 70 30.5t26 78.5v318q0 57 -26.5 90.5t-71.5 33.5q-62 0 -96 -74.5t-34 -207.5z" glyph-name="d" horiz-adv-x="605" unicode="d"/><glyph d="M273 417q42 0 59.5 22t17.5 69q0 98 -66 98q-93 0 -114 -179q-1 -10 8 -10h95zM-5 312q0 158 78 253.5t208 95.5q96 0 154 -66.5t58 -176.5q0 -56 -38 -56h-280q-9 0 -9 -7l-1 -34q0 -131 42 -199t124 -68q59 0 119 53q14 12 28 2q12 -10 4 -26q-22 -45 -74.5 -71.5 t-117.5 -26.5q-134 0 -214.5 89t-80.5 238z" glyph-name="e" horiz-adv-x="488" unicode="e"/><glyph d="M343 645q12 0 20.5 -8t8.5 -21q0 -31 -29 -31h-82q-22 0 -22 -18v-456q0 -35 14.5 -49t36.5 -19q18 -4 18 -22q0 -21 -21 -21q-3 0 -20.5 1.5t-46.5 3t-61 1.5t-61.5 -1.5t-47 -3t-20.5 -1.5q-20 0 -20 21q0 18 19 22q50 11 50 68v455q0 18 -18 18l-26 -1q-8 0 -14 6.5 t-6 17.5q0 18 16 24l32 12q16 6 16 20v39q0 116 67 192t170 76q62 0 101 -34.5t39 -82.5q0 -23 -11.5 -37.5t-31.5 -14.5q-39 0 -57 44q-3 8 -7.5 19t-7 17t-6 13.5t-6.5 11t-7 7.5t-8.5 5.5t-10.5 1.5q-32 0 -48 -50.5t-16 -173.5v-33q0 -18 23 -18h81z" glyph-name="f" horiz-adv-x="376" unicode="f"/><glyph d="M298 195q-38 0 -74.5 -9t-36.5 -33q0 -26 36 -26q25 0 77.5 7t81.5 7q93 0 149 -42.5t56 -112.5q0 -107 -90 -176.5t-228 -69.5q-117 0 -193 42t-76 107q0 71 91 125q8 5 2 14q-43 50 -43 83q0 74 119 105q10 3 1 7q-62 29 -97.5 83t-35.5 123q0 101 74.5 166.5 t190.5 65.5q42 0 78 -9q19 -6 34.5 -12.5t24 -9t20.5 -2.5h105q27 0 27 -27q0 -29 -29 -29h-53q50 -61 50 -143q0 -102 -72.5 -168t-184.5 -66h-4zM302 252q41 0 64 46.5t23 130.5t-23 130.5t-64 46.5q-45 0 -70 -46.5t-25 -130.5t25 -130.5t70 -46.5zM158 -66q0 -57 40 -89 t111 -32q72 0 115.5 27t43.5 73q0 82 -135 82q-28 0 -89.5 -5.5t-76.5 -6.5q-9 -23 -9 -49z" glyph-name="g" horiz-adv-x="577" unicode="g"/><glyph d="M69 823q0 20 -7 28.5t-24 13.5q-16 4 -16 20q0 15 17 18q43 6 91.5 22.5t69.5 37.5q7 7 16 7q13 0 13 -22v-345q0 -13 12 -1q62 59 138 59q79 0 132 -52t53 -140v-363q0 -35 14.5 -49t36.5 -19q18 -4 18 -20q0 -18 -19 -18l-42 3q-43 3 -83 3q-34 0 -64.5 -1.5t-48.5 -3 t-22 -1.5q-19 0 -19 18q0 16 18 20q14 3 23.5 8t18.5 20.5t9 39.5v353q0 119 -76 119q-45 0 -72 -39.5t-27 -98.5v-334q0 -35 14.5 -49t36.5 -19q18 -4 18 -20q0 -18 -19 -18q-4 0 -22 1.5t-47.5 3t-61.5 1.5q-31 0 -60 -1.5t-47 -3t-22 -1.5q-19 0 -19 18q0 16 18 20 q14 3 23.5 8t18.5 20.5t9 39.5v717z" glyph-name="h" horiz-adv-x="628" unicode="h"/><glyph d="M154 711q-36 0 -59.5 24t-23.5 61t23.5 60.5t59.5 23.5t59.5 -23.5t23.5 -60.5t-23.5 -61t-59.5 -24zM234 106q0 -56 52 -68q17 -4 17 -19q0 -19 -18 -19q-4 0 -22.5 1.5t-48 3t-61.5 1.5q-31 0 -60.5 -1.5t-47.5 -3t-22 -1.5q-18 0 -18 19q0 15 17 19q52 12 52 68v406 q0 20 -7 28.5t-23 12.5q-17 5 -17 21q0 15 17 18q113 17 155 59q8 8 17 8q18 0 18 -16v-537z" glyph-name="i" horiz-adv-x="298" unicode="i"/><glyph d="M115 498q0 20 -7 28.5t-23 12.5q-17 5 -17 21q0 15 17 18q43 7 89.5 23.5t65.5 35.5q8 8 17 8q18 0 18 -16v-640q0 -123 -55 -186.5t-144 -63.5q-57 0 -94 23t-37 59q0 20 12.5 32.5t31.5 12.5q26 0 51.5 -35t44.5 -35q12 0 17.5 9t9 40.5t3.5 95.5v557zM195 711 q-36 0 -59.5 24t-23.5 61t23.5 60.5t59.5 23.5t59.5 -23.5t23.5 -60.5t-23.5 -61t-59.5 -24z" glyph-name="j" horiz-adv-x="314" unicode="j"/><glyph d="M367 0q-8 0 -14 5.5t-6 14.5q0 16 19 21q37 10 15 46l-127 204q-8 16 -16 8l2 2q-6 -6 -6 -18v-172q0 -35 14.5 -49t36.5 -19q18 -4 18 -22q0 -21 -19 -21q-3 0 -21 1.5t-48 3t-62 1.5q-31 0 -60.5 -1.5t-47.5 -3t-21 -1.5q-19 0 -19 21q0 18 18 22q14 3 23.5 8 t18.5 20.5t9 39.5v707q0 20 -7 28.5t-24 13.5q-16 4 -16 22t17 21q48 7 95 24t66 36q7 7 16 7q13 0 13 -12v-535q0 -13 9 -4l116 117q25 27 20 40t-40 25q-17 6 -17 23q0 9 5.5 15t13.5 6q2 0 41.5 -2.5t82.5 -2.5q38 0 76.5 2.5t41.5 2.5q19 0 19 -19q0 -17 -18 -22 q-48 -14 -69.5 -25t-47.5 -38l-107 -113q-6 -6 -1 -14l201 -314q25 -39 77 -57q20 -7 20 -23q0 -20 -22 -20q-5 0 -47.5 3t-84.5 3q-43 0 -87 -3t-49 -3z" glyph-name="k" horiz-adv-x="622" unicode="k"/><glyph d="M234 106q0 -56 52 -68q17 -4 17 -19q0 -19 -18 -19q-4 0 -22.5 1.5t-48 3t-61.5 1.5q-31 0 -60.5 -1.5t-47.5 -3t-22 -1.5q-18 0 -18 19q0 15 17 19q52 12 52 68v717q0 20 -7 28.5t-23 12.5q-17 5 -17 21q0 15 17 18q38 6 86 22t69 37q8 8 17 8q18 0 18 -16v-848z" glyph-name="l" horiz-adv-x="298" unicode="l"/><glyph d="M74 512q0 20 -7 28.5t-23 12.5q-17 5 -17 21q0 15 17 18q113 17 155 59q8 8 17 8q18 0 18 -16v-36q0 -13 10 -4q61 58 135 58q110 0 152 -91q3 -8 8 -1q67 92 172 92q76 0 124.5 -51.5t48.5 -140.5v-363q0 -56 53 -68q16 -4 16 -20q0 -18 -17 -18q-4 0 -22.5 1.5t-48 3 t-61.5 1.5t-61.5 -1.5t-48 -3t-22.5 -1.5q-17 0 -17 18q0 16 16 20q53 12 53 68v363q0 109 -73 109q-43 0 -67.5 -33t-24.5 -90v-349q0 -35 14.5 -49t36.5 -19q18 -4 18 -20q0 -18 -19 -18l-43 3q-44 3 -87 3q-32 0 -61 -1.5t-47 -3t-22 -1.5q-19 0 -19 19q0 15 18 19 q14 3 23.5 8t18.5 20.5t9 39.5v363q0 109 -75 109q-43 0 -66.5 -26.5t-23.5 -71.5v-374q0 -56 52 -68q17 -4 17 -19q0 -19 -18 -19q-4 0 -22.5 1.5t-48 3t-61.5 1.5q-31 0 -60.5 -1.5t-47.5 -3t-22 -1.5q-18 0 -18 19q0 15 17 19q52 12 52 68v406z" glyph-name="m" horiz-adv-x="948" unicode="m"/><glyph d="M59 502q0 20 -7 28.5t-24 13.5q-16 4 -16 20q0 15 17 18q108 17 161 70q7 7 16 7q13 0 13 -12v-54q0 -13 11 0q60 68 134 68q83 0 136.5 -51.5t53.5 -140.5v-363q0 -35 14.5 -49t36.5 -19q18 -4 18 -20q0 -18 -19 -18l-42 3q-43 3 -83 3t-87 -3l-48 -3q-19 0 -19 18 q0 16 18 20q14 3 23.5 8t18.5 20.5t9 39.5v353q0 119 -76 119q-46 0 -72.5 -39t-26.5 -99v-334q0 -35 14.5 -49t36.5 -19q18 -4 18 -20q0 -18 -19 -18q-1 0 -47 3t-84 3q-31 0 -60 -1.5t-47 -3t-22 -1.5q-19 0 -19 18q0 16 18 20q14 3 23.5 8t18.5 20.5t9 39.5v396z" glyph-name="n" horiz-adv-x="628" unicode="n"/><glyph d="M287 -16q-131 0 -209 94.5t-78 251.5q0 150 78.5 240.5t208.5 90.5t208.5 -90.5t78.5 -240.5q0 -157 -78 -251.5t-209 -94.5zM287 39q55 0 86 76.5t31 214.5q0 131 -31 203.5t-86 72.5t-86 -72.5t-31 -203.5q0 -138 31 -214.5t86 -76.5z" glyph-name="o" horiz-adv-x="574" unicode="o"/><glyph d="M79 483q0 29 -7.5 41t-31.5 21q-18 7 -18 21q0 18 22 21q41 6 86.5 24.5t66.5 39.5q10 10 22 10q20 0 20 -16v-39q0 -9 6 -3q62 58 139 58q110 0 176.5 -90t66.5 -240q0 -157 -76.5 -252t-204.5 -95q-54 0 -96 15q-11 4 -11 -9v-124q0 -35 17 -48t53 -20q19 -4 19 -22 q0 -21 -19 -21q-3 0 -26 1.5t-59 3t-70 1.5q-29 0 -58 -1.5t-46.5 -3t-20.5 -1.5q-19 0 -19 21q0 18 18 22q14 3 23.5 8t18.5 20.5t9 39.5v617zM239 146q0 -107 98 -107q64 0 92 70t28 229q0 248 -107 248q-51 0 -81 -37t-30 -95v-308z" glyph-name="p" horiz-adv-x="627" unicode="p"/><glyph d="M388 9q0 7 -2 8.5t-6 -0.5q-52 -33 -111 -33q-125 0 -199.5 87.5t-74.5 232.5q0 162 78.5 259.5t209.5 97.5q54 0 110 -14t70 -14q27 0 44 21q8 10 20 10q25 0 25 -19q0 -3 -2 -22.5t-2 -39.5v-717q0 -35 14.5 -49t36.5 -19q18 -4 18 -22q0 -21 -19 -21q-3 0 -21 1.5 t-47.5 3t-61.5 1.5t-66.5 -1.5t-57.5 -3t-26 -1.5q-19 0 -19 21q0 19 19 22q21 4 34 9t24.5 20t11.5 39v143zM165 327q0 -145 30.5 -214t94.5 -69q98 0 98 151v310q0 47 -23.5 76.5t-65.5 29.5q-69 0 -101.5 -69t-32.5 -215z" glyph-name="q" horiz-adv-x="612" unicode="q"/><glyph d="M69 512q0 20 -7 28.5t-24 13.5q-16 4 -16 19q0 16 17 19q39 6 89.5 22.5t71.5 37.5q7 7 15 7q14 0 14 -13v-73q0 -13 6 -1q43 89 117 89q34 0 54.5 -21t20.5 -56q0 -31 -13.5 -49t-35.5 -18q-25 0 -46 27t-36 27q-33 0 -58 -64q-9 -29 -9 -63v-343q0 -22 11 -35.5 t23.5 -18t36.5 -9.5q18 -4 18 -20q0 -18 -19 -18q-4 0 -26 1.5t-56.5 3t-68.5 1.5q-31 0 -60 -1.5t-47 -3t-22 -1.5q-19 0 -19 18q0 14 18 20q15 4 24 8.5t18 18.5t9 36v411z" glyph-name="r" horiz-adv-x="422" unicode="r"/><glyph d="M213 -16q-69 0 -125.5 16t-56.5 38q0 5 1 26t1 39q0 17 -1 37t-1 26q0 23 19 23q14 0 20 -17q48 -133 131 -133q36 0 56 21t20 59q0 51 -26.5 88t-64.5 61.5t-75.5 49.5t-64 65t-26.5 94q0 80 59 132t151 52q57 0 102.5 -14.5t45.5 -35.5q0 -4 -1 -22t-1 -31q0 -12 1 -28 t1 -21q0 -16 -16 -16q-12 0 -20 17q-23 49 -53 73t-60 24t-46.5 -18.5t-16.5 -51.5q0 -40 27 -71t65 -54.5t76 -51t65 -75t27 -111.5q0 -83 -60 -136.5t-153 -53.5z" glyph-name="s" horiz-adv-x="426" unicode="s"/><glyph d="M216 -16q-71 0 -114 38t-43 105v449q0 13 -9 13l-26 -2q-8 0 -13.5 6t-5.5 15q0 15 16 22q116 47 160 119q5 9 18 9q20 0 20 -15v-80q0 -18 23 -18h61q29 0 29 -27q0 -28 -29 -28h-62q-22 0 -22 -18v-401q0 -63 10.5 -89t40.5 -26q18 0 44 18q13 10 24 1q12 -11 1 -28 q-43 -63 -123 -63z" glyph-name="t" horiz-adv-x="344" unicode="t"/><glyph d="M74 539q0 35 -14.5 49t-36.5 19q-18 4 -18 20q0 18 19 18q1 0 33 -2.5t60 -2.5q27 0 49.5 1t34.5 2.5t16 1.5q17 0 17 -16v-443q0 -119 76 -119q53 0 85 74q9 27 9 52v346q0 35 -14.5 49t-36.5 19q-18 4 -18 20q0 18 19 18q3 0 17.5 -1.5t37.5 -2.5t48 -1q31 0 60 2.5 t30 2.5q17 0 17 -16v-506q0 -20 7 -28.5t24 -13.5q16 -4 16 -19q0 -18 -17 -19q-101 -9 -157 -49q-11 -8 -18 -8q-14 0 -14 13v40q0 13 -9 4q-64 -59 -137 -59q-82 0 -133.5 51.5t-51.5 140.5v363z" glyph-name="u" horiz-adv-x="606" unicode="u"/><glyph d="M54 568q-10 29 -43 39q-21 6 -21 21q0 17 18 17q3 0 43.5 -2t82.5 -2q34 0 66.5 1t52.5 2t24 1q19 0 19 -16q0 -17 -22 -22q-35 -8 -45.5 -19t-0.5 -42l99 -310q7 -20 14 1l98 315q8 26 -4 37t-52 19q-20 5 -20 20q0 17 20 17q4 0 16.5 -1t36.5 -2t55 -1q25 0 46 1 t33.5 2t15.5 1q17 0 17 -14q0 -17 -21 -21q-13 -3 -20.5 -6.5t-16 -14.5t-15.5 -30l-168 -505q-10 -30 -23.5 -42t-36.5 -12q-48 0 -67 54z" glyph-name="v" horiz-adv-x="598" unicode="v"/><glyph d="M380 542q-10 28 -22 40t-39 20q-17 5 -21 17q-3 -11 -20 -16q-32 -9 -42 -24.5t0 -46.5l108 -320q7 -20 14 1l62 196q3 9 0 17zM387 73q-14 -42 -28 -57.5t-43 -15.5q-31 0 -48 16t-32 57l-171 467q-11 30 -23 42t-33 19q-24 7 -24 24q0 20 20 20q2 0 20.5 -1.5t49 -2.5 t62.5 -1q41 0 73 1t48.5 2.5t21.5 1.5q15 0 18 -12q4 12 19 12q4 0 22.5 -1.5t49 -2.5t62.5 -1q38 0 70.5 1t51 2.5t21.5 1.5q19 0 19 -18q0 -17 -22 -23q-32 -9 -42.5 -25t-0.5 -46l97 -315q7 -21 13 1l88 317q8 28 -3 43.5t-47 23.5q-23 5 -23 23q0 19 20 19q3 0 16.5 -1 t37 -2t52.5 -1q26 0 47.5 1t33 2t14.5 1q18 0 18 -18q0 -17 -23 -24q-24 -7 -34.5 -17.5t-18.5 -36.5l-149 -476q-13 -42 -27 -57.5t-42 -15.5q-33 0 -49 16t-30 57l-75 221z" glyph-name="w" horiz-adv-x="897" unicode="w"/><glyph d="M173 91q-13 -20 -6 -33t39 -18q19 -3 19 -20q0 -20 -18 -20q-8 0 -33.5 2.5t-55.5 2.5t-62.5 -2.5t-46.5 -2.5q-19 0 -19 20q0 16 18 20q48 9 75 55l114 195q8 13 0 28l-121 226q-15 29 -28.5 41.5t-36.5 18.5q-22 5 -22 22q0 19 19 19q4 0 17 -1.5t41.5 -2.5t70.5 -1 t85 2.5t44 2.5q20 0 20 -19q0 -17 -19 -21q-27 -6 -29 -22.5t16 -45.5l47 -89q5 -10 13 1l56 96q16 26 12 39t-30 21q-20 6 -20 22q0 18 17 18l29 -3q30 -2 68 -2q36 0 67 2l31 3q18 0 18 -19q0 -15 -19 -21q-31 -9 -48 -20.5t-32 -38.5l-104 -179q-7 -13 1 -27l126 -237 q17 -30 33.5 -44t40.5 -19q21 -5 21 -20q0 -20 -20 -20q-11 0 -44.5 2.5t-70.5 2.5q-52 0 -97 -2.5t-54 -2.5q-8 0 -13.5 6t-5.5 14q0 18 19 20q28 3 32 18t-11 38l-63 117q-6 12 -13 0z" glyph-name="x" horiz-adv-x="566" unicode="x"/><glyph d="M62 546q-10 28 -19 38t-29 17q-24 7 -24 25q0 19 19 19q3 0 19 -1t42.5 -2t57.5 -1q36 0 67 1t49 2t22 1q21 0 21 -20q0 -18 -22 -24q-29 -8 -36.5 -19.5t0.5 -37.5l86 -262q6 -17 12 0l83 256q10 30 -2 43t-49 23q-21 5 -21 23t19 18q3 0 17 -1t38.5 -2t53.5 -1 q25 0 46 1t33 2t15 1q18 0 18 -18t-22 -24q-22 -7 -34.5 -18t-20.5 -38l-174 -532q-23 -69 -40.5 -112t-44 -84.5t-60.5 -60.5t-78 -19q-47 0 -75 19t-28 50q0 22 12.5 35t33.5 13q22 0 43.5 -24t33.5 -24q35 0 107 185q7 18 7 43q0 15 -8 37z" glyph-name="y" horiz-adv-x="573" unicode="y"/><glyph d="M269 574q8 18 -11 18h-70q-60 0 -87.5 -16t-40.5 -56q-8 -22 -22 -22q-17 0 -17 18q0 3 1 22t1 35q0 13 -1 32.5t-1 22.5q0 17 27 17q5 0 71 -1.5t123 -1.5q49 0 94.5 1t73 1.5t34.5 0.5q21 0 21 -16q0 -7 -4 -15l-268 -543q-8 -18 11 -18h97q43 0 68.5 12t36.5 28.5 t21 48.5q8 25 21 25q14 0 14 -21l-1 -62l1 -65q0 -19 -25 -19q-4 0 -77 1.5t-129 1.5q-64 0 -139.5 -1.5t-78.5 -1.5q-19 0 -19 14q0 4 3 12z" glyph-name="z" horiz-adv-x="461" unicode="z"/><glyph d="M315 -108q-53 0 -94 32.5t-41 93.5q0 28 3 69.5t3 70.5q0 136 -28.5 192.5t-90.5 67.5q-16 4 -16 24t16 24q62 14 88.5 64.5t26.5 164.5q0 23 -2.5 68t-2.5 68q0 61 41 100t97 39q28 0 28 -22q0 -14 -17 -21q-11 -4 -17 -10.5t-8.5 -20t-2.5 -19.5v-27q0 -26 4 -75t4 -78 q0 -108 -31.5 -167t-101.5 -86q70 -26 101.5 -88t31.5 -182q0 -30 -4 -76t-4 -75v-12.5v-11.5v-10.5t0.5 -10.5l1.5 -9t2.5 -9t3.5 -7.5t4.5 -7t6 -5t7.5 -4.5q19 -9 19 -22q0 -22 -28 -22z" glyph-name="braceleft" unicode="{"/><glyph d="M120 -83l5 1018h90l-5 -1018h-90z" glyph-name="bar" horiz-adv-x="300" unicode="|"/><glyph d="M111 -108q-28 0 -28 22q0 13 19 22q4 2 7.5 4.5t6 5t4.5 7t3.5 7.5t2.5 9l1.5 9t0.5 10.5v10.5v11.5v12.5q0 29 -4 75t-4 76q0 120 31.5 182t101.5 88q-70 27 -101.5 86t-31.5 167q0 29 4 78t4 75v6q0 16 -0.5 24t-3 19t-8.5 17.5t-16 10.5q-17 7 -17 21q0 22 28 22 q56 0 97 -39t41 -100q0 -23 -2.5 -68t-2.5 -68q0 -114 26.5 -164.5t88.5 -64.5q16 -4 16 -24t-16 -24q-62 -11 -90.5 -67.5t-28.5 -192.5q0 -29 3 -70.5t3 -69.5q0 -61 -41 -93.5t-94 -32.5z" glyph-name="braceright" unicode="}"/><glyph d="M173 381q3 32 33 32q28 0 31 -32l44 -496q4 -39 -17.5 -61.5t-58.5 -22.5q-39 0 -59.5 22.5t-16.5 61.5zM205 661q31 0 51.5 -24t20.5 -60q0 -37 -20 -60t-52 -23t-52 23t-20 60q0 36 20.5 60t51.5 24z" glyph-name="exclamdown" unicode="¡"/><glyph d="M296 762q0 25 28 25q27 0 27 -25v-101q64 -1 111 -27t47 -54q0 -5 -1 -19t-1 -26t1 -31.5t1 -24.5q0 -13 -17 -13q-13 0 -20 15q-26 59 -54 90.5t-67 34.5v-552q13 -3 29 -3q50 0 96 38q10 8 17 8t14 -7t7 -14q0 -8 -6 -15q-56 -74 -157 -77v-88q0 -25 -27 -25 q-28 0 -28 25v92q-112 17 -181.5 107t-69.5 220q0 136 69.5 230t181.5 112v105zM215 333q0 -193 81 -256v515q-81 -53 -81 -259z" glyph-name="cent" horiz-adv-x="550" unicode="¢"/><glyph d="M163 -16q-65 0 -104 35t-39 93q0 54 36 86.5t95 32.5q46 0 80 -16q-4 54 -36 191h-85q-25 0 -25 28q0 27 25 27h73q-27 119 -27 186q0 109 62 169t173 60q92 0 169 -45q27 -15 27 -34q0 -4 -1.5 -28t-1.5 -50q0 -24 1.5 -47t1.5 -28q0 -19 -18 -19q-17 0 -24 18 q-36 86 -75.5 129.5t-93.5 43.5q-41 0 -64.5 -30t-23.5 -83q0 -78 50 -242h188q25 0 25 -27q0 -28 -25 -28h-172q32 -108 32 -178q0 -50 -16 -91q69 -38 133 -38q80 0 134 89q8 14 20 14q17 0 17 -20q0 -18 -7.5 -47t-23.5 -65t-49.5 -61t-77.5 -25q-94 0 -187 79 q-64 -79 -166 -79zM145 104q0 -65 40 -65q44 0 48 116q-17 21 -41 21q-47 0 -47 -72z" glyph-name="sterling" horiz-adv-x="700" unicode="£"/><glyph d="M539 747q15 32 4 47t-54 23q-21 3 -21 23q0 9 5.5 14.5t12.5 5.5q2 0 42 -2.5t84 -2.5q42 0 79 2.5t38 2.5q19 0 19 -19q0 -17 -20 -22q-25 -6 -37.5 -10.5t-26.5 -17t-24 -33.5l-129 -271h101q25 0 25 -27q0 -28 -25 -28h-128l-7 -16v-79h135q25 0 25 -27q0 -28 -25 -28 h-135v-191q0 -22 15.5 -31.5t44.5 -16.5q19 -4 19 -23q0 -20 -20 -20q-4 0 -24.5 1.5t-52.5 3t-65 1.5q-37 0 -71 -1.5t-55 -3t-25 -1.5q-20 0 -20 20q0 19 19 23t30 8.5t20.5 14.5t9.5 25v191h-146q-25 0 -25 28q0 27 25 27h146v30l-33 65h-113q-25 0 -25 28q0 27 25 27h85 l-141 278q-13 24 -29.5 34.5t-46.5 17.5q-24 6 -24 23q0 9 6 14.5t14 5.5q3 0 52.5 -2.5t101.5 -2.5q64 0 117.5 2.5t55.5 2.5q8 0 14 -5.5t6 -14.5q0 -18 -22 -23q-37 -9 -45.5 -26.5t7.5 -48.5l111 -229q6 -12 12 0z" glyph-name="yen" horiz-adv-x="679" unicode="¥"/><glyph d="M213 603q-30 -6 -60 -20q15 -13 47 -35q13 7 32 9zM303 260q20 6 30 10q27 11 42 22q-22 23 -50 42q-6 -8 -18 -16q-11 -7 -22 -10zM64 445q0 -52 26 -90.5t62.5 -61.5t73 -45.5t62.5 -56t26 -79.5q0 -36 -20 -56t-55 -20q-48 0 -74.5 28.5t-52.5 89.5q-8 19 -22 19 q-20 0 -20 -22l1 -57l-1 -60q0 -21 46 -35.5t108 -14.5q91 0 146 47.5t55 127.5t-50 133q75 50 75 136q0 50 -18.5 89t-47 62t-61 45t-61 38.5t-47 41.5t-18.5 55q0 31 17.5 49t46.5 18q66 0 109 -85q10 -20 24 -20q16 0 16 17l-1 43l1 51q0 18 -41 31t-93 13 q-81 0 -134 -44t-53 -112q0 -82 64 -137q-41 -22 -65 -58t-24 -80zM162 490q0 39 38 58q6 -4 25 -15.5t25.5 -16.5t22.5 -16t22.5 -18.5t17 -20t15 -23.5t8 -26t3.5 -31q0 -30 -14 -47q-18 13 -55 35t-56 35t-35.5 36t-16.5 50z" glyph-name="section" horiz-adv-x="500" unicode="§"/><glyph d="M465 -16q-140 0 -231 95.5t-91 243.5q0 147 91 242.5t231 95.5t230.5 -95.5t90.5 -242.5q0 -148 -90.5 -243.5t-230.5 -95.5zM465 36q117 0 193 81t76 206q0 124 -76 205t-193 81q-118 0 -194 -80.5t-76 -205.5t76 -206t194 -81zM600 427q0 -8 -12 -8q-9 0 -13 9 q-20 43 -40 64.5t-48 21.5q-41 0 -64 -49.5t-23 -136.5q0 -191 112 -191q33 0 65 26q7 5 11 5q8 0 10 -5q5 -5 5 -9q0 -3 -4 -11q-39 -51 -112 -51q-87 0 -145 63t-58 161q0 102 58 168.5t145 66.5q45 0 79 -18t34 -37q0 -4 -1 -13t-1 -17t1 -22t1 -17z" glyph-name="copyright" horiz-adv-x="900" unicode="©"/><glyph d="M112 567q-32 0 -52 17t-20 45q0 33 31.5 66.5t87.5 56.5q11 4 11 15v47q0 38 -13 38t-34 -41q-16 -32 -39 -32t-23 22q0 25 33 50t72 25q36 0 59.5 -15t23.5 -40v-198q0 -19 7 -19q3 0 9 3q7 3 11 -1q5 -5 1 -12q-10 -20 -42 -20q-29 0 -46 19q-4 4 -9 -1 q-27 -25 -68 -25zM121 639q0 -37 24 -37q25 0 25 43v81q0 6 -7 2q-42 -26 -42 -89z" glyph-name="ordfeminine" horiz-adv-x="300" unicode="ª"/><glyph d="M24 290q0 13 17 30l136 134q20 20 40 6q17 -13 6 -32l-79 -138l79 -138q11 -18 -5 -31q-21 -15 -42 6l-135 133q-17 17 -17 30zM224 290q0 13 17 30l136 134q20 20 40 6q17 -13 6 -32l-79 -138l79 -138q11 -18 -5 -31q-21 -15 -42 6l-135 133q-17 17 -17 30z" glyph-name="guillemotleft" horiz-adv-x="450" unicode="«"/><glyph d="M204 567q-66 0 -108.5 43.5t-42.5 111.5q0 67 42.5 110.5t108.5 43.5q65 0 107.5 -43.5t42.5 -110.5t-42.5 -111t-107.5 -44zM204 596q53 0 87 35.5t34 90.5q0 54 -34.5 89.5t-86.5 35.5q-53 0 -87.5 -35.5t-34.5 -89.5q0 -55 34.5 -90.5t87.5 -35.5zM153 791q0 8 -10 11 q-6 2 -6 7q0 6 6 6h32h34q26 0 42 -12.5t16 -33.5q0 -31 -32 -45q10 -5 25 -41l11 -25q3 -8 13 -11q5 -2 5 -6q0 -5 -5 -5h-6q-6 1 -14 1q-10 0 -18 -1h-8q-5 0 -6 4l-14 40q-12 37 -18 37t-6 -8v-50q0 -7 11 -11q5 -2 5 -6q0 -6 -6 -6h-5t-10.5 0.5t-14.5 0.5 q-9 0 -16 -0.5t-10.5 -0.5h-4.5q-6 0 -6 6q0 4 5 6q11 4 11 11v132zM206 731q19 0 19 37q0 35 -20 35q-11 0 -11 -9v-52q0 -11 12 -11z" glyph-name="registered" unicode="®"/><glyph d="M168 661q-44 0 -73 28.5t-29 71.5t29 71t73 28q43 0 71 -28t28 -71t-28 -71.5t-71 -28.5zM168 701q18 0 29.5 17t11.5 43t-11.5 42.5t-29.5 16.5q-19 0 -31.5 -16.5t-12.5 -42.5t12.5 -43t31.5 -17z" glyph-name="degree" horiz-adv-x="300" unicode="°"/><glyph d="M148 567l-95 1l-94 -1q-6 0 -6 7q0 4 3 7q109 109 109 228q0 35 -29 35q-25 0 -53 -23q-9 -7 -14 -7q-9 0 -9 9q0 3 2 7q9 16 36 31t61 15q43 0 66 -19.5t23 -54.5q0 -44 -30.5 -84t-92.5 -94h47q42 0 54.5 4t15.5 19q2 8 9 8q9 0 9 -9l-1 -33l1 -38q0 -8 -12 -8z" glyph-name="uni00B2" horiz-adv-x="196" unicode="²"/><glyph d="M135 567q-34 0 -55.5 11.5t-21.5 28.5q0 20 20 20q12 0 26 -16.5t34 -16.5q44 0 44 67q0 61 -42 61q-11 0 -24 -4l-13 -5q-4 0 -4 9t4 10q25 9 42 31t17 53q0 26 -23 26q-20 0 -44 -20q-9 -8 -16 -1q-6 6 1 14q34 41 92 41q32 0 51 -13.5t19 -35.5q0 -49 -62 -78 q35 -4 60.5 -26t25.5 -55q0 -44 -37 -72.5t-94 -28.5z" glyph-name="uni00B3" horiz-adv-x="270" unicode="³"/><glyph d="M302 257q-32 0 -53.5 25t-21.5 63q0 37 21.5 62t53.5 25t53.5 -25t21.5 -62q0 -38 -21.5 -63t-53.5 -25z" glyph-name="periodcentered" horiz-adv-x="600" unicode="·"/><glyph d="M134 802q0 12 -10 12q-3 0 -8 -1t-7 -1q-9 0 -9 11q0 8 8 10q57 9 86 24q6 3 10 3q8 0 8 -7v-242q0 -18 23 -23q8 -2 8 -10q0 -11 -8 -11l-20 1q-20 2 -41 2q-18 0 -31.5 -1t-21 -1.5t-9.5 -0.5q-9 0 -9 11q0 8 8 10q23 5 23 23v191z" glyph-name="uni00B9" horiz-adv-x="328" unicode="¹"/><glyph d="M207 567q-64 0 -105 44.5t-41 113.5q0 66 41 108.5t105 42.5t105 -42.5t41 -108.5q0 -69 -41 -113.5t-105 -44.5zM207 597q49 0 49 128q0 57 -13 89t-36 32t-36 -32t-13 -89q0 -128 49 -128z" glyph-name="ordmasculine" unicode="º"/><glyph d="M253 428q-11 19 6 32q20 14 40 -6l136 -134q17 -17 17 -30t-17 -30l-135 -133q-21 -21 -42 -6q-16 13 -5 31l79 138zM53 428q-11 19 6 32q20 14 40 -6l136 -134q17 -17 17 -30t-17 -30l-135 -133q-21 -21 -42 -6q-16 13 -5 31l79 138z" glyph-name="guillemotright" horiz-adv-x="500" unicode="»"/><glyph d="M216 418q29 0 29 -38q0 -54 23.5 -99t57 -76t67 -59.5t57 -64.5t23.5 -76q0 -99 -73.5 -159.5t-194.5 -60.5q-61 0 -102.5 27.5t-41.5 66.5q0 27 16 45t45 18q23 0 41 -15.5t28 -33.5t28.5 -33.5t42.5 -15.5q65 0 65 113q0 41 -15.5 79t-37.5 69.5t-44.5 65.5t-38 80.5 t-15.5 99.5q0 31 10.5 49t29.5 18zM217 494q-31 0 -51.5 24t-20.5 60q0 37 20 60t52 23t52 -23t20 -60q0 -36 -20.5 -60t-51.5 -24z" glyph-name="questiondown" horiz-adv-x="500" unicode="¿"/><glyph d="M624 98q7 -27 21.5 -37t43.5 -16q21 -5 21 -24q0 -21 -20 -21q-2 0 -44 2t-88 2q-49 0 -105.5 -2t-58.5 -2q-21 0 -21 22q0 20 20 23q30 5 43 16t6 38l-48 185q-3 13 -21 13h-138q-17 0 -22 -13l-53 -186q-3 -9 -3 -19q0 -14 12.5 -21t44.5 -12q20 -3 20 -24 q0 -22 -21 -22q-3 0 -38.5 2t-70.5 2q-34 0 -66 -2t-34 -2q-19 0 -19 22q0 20 20 23q54 10 64 44l224 733q14 42 67 42q51 0 63 -42zM199 1097q24 43 78 13q34 -20 70 -50.5t55 -51.5q18 -17 8 -34t-34 -12q-84 20 -150 59q-54 30 -27 76zM238 370q-4 -13 5 -13h124 q9 0 6 13l-59 230q-5 18 -10 1z" glyph-name="Agrave" horiz-adv-x="684" unicode="À"/><glyph d="M624 98q7 -27 21.5 -37t43.5 -16q21 -5 21 -24q0 -21 -20 -21q-2 0 -44 2t-88 2q-49 0 -105.5 -2t-58.5 -2q-21 0 -21 22q0 20 20 23q30 5 43 16t6 38l-48 185q-3 13 -21 13h-138q-17 0 -22 -13l-53 -186q-3 -9 -3 -19q0 -14 12.5 -21t44.5 -12q20 -3 20 -24 q0 -22 -21 -22q-3 0 -38.5 2t-70.5 2q-34 0 -66 -2t-34 -2q-19 0 -19 22q0 20 20 23q54 10 64 44l224 733q14 42 67 42q51 0 63 -42zM492 1097q27 -46 -27 -76q-66 -39 -150 -59q-24 -5 -34 12t8 34q19 21 55 51.5t70 50.5q54 30 78 -13zM238 370q-4 -13 5 -13h124q9 0 6 13 l-59 230q-5 18 -10 1z" glyph-name="Aacute" horiz-adv-x="684" unicode="Á"/><glyph d="M624 98q7 -27 21.5 -37t43.5 -16q21 -5 21 -24q0 -21 -20 -21q-2 0 -44 2t-88 2q-49 0 -105.5 -2t-58.5 -2q-21 0 -21 22q0 20 20 23q30 5 43 16t6 38l-48 185q-3 13 -21 13h-138q-17 0 -22 -13l-53 -186q-3 -9 -3 -19q0 -14 12.5 -21t44.5 -12q20 -3 20 -24 q0 -22 -21 -22q-3 0 -38.5 2t-70.5 2q-34 0 -66 -2t-34 -2q-19 0 -19 22q0 20 20 23q54 10 64 44l224 733q14 42 67 42q51 0 63 -42zM313 1108q5 8 17 8h46q12 0 17 -8l76 -119q15 -24 -7 -41q-8 -8 -23.5 -7.5t-26.5 13.5l-60 71l-61 -71q-20 -23 -45 -9q-12 7 -15.5 20 t3.5 24zM238 370q-4 -13 5 -13h124q9 0 6 13l-59 230q-5 18 -10 1z" glyph-name="Acircumflex" horiz-adv-x="684" unicode="Â"/><glyph d="M624 98q7 -27 21.5 -37t43.5 -16q21 -5 21 -24q0 -21 -20 -21q-2 0 -44 2t-88 2q-49 0 -105.5 -2t-58.5 -2q-21 0 -21 22q0 20 20 23q30 5 43 16t6 38l-48 185q-3 13 -21 13h-138q-17 0 -22 -13l-53 -186q-3 -9 -3 -19q0 -14 12.5 -21t44.5 -12q20 -3 20 -24 q0 -22 -21 -22q-3 0 -38.5 2t-70.5 2q-34 0 -66 -2t-34 -2q-19 0 -19 22q0 20 20 23q54 10 64 44l224 733q14 42 67 42q51 0 63 -42zM404 953q-24 0 -60.5 16t-52.5 16q-22 0 -42 -14q-9 -6 -14 -6q-10 0 -10 14q0 35 22.5 64.5t52.5 29.5q20 0 58 -15.5t55 -15.5 q24 0 40 16q7 7 12 7q11 0 11 -21q0 -35 -21 -63t-51 -28zM238 370q-4 -13 5 -13h124q9 0 6 13l-59 230q-5 18 -10 1z" glyph-name="Atilde" horiz-adv-x="684" unicode="Ã"/><glyph d="M624 98q7 -27 21.5 -37t43.5 -16q21 -5 21 -24q0 -21 -20 -21q-2 0 -44 2t-88 2q-49 0 -105.5 -2t-58.5 -2q-21 0 -21 22q0 20 20 23q30 5 43 16t6 38l-48 185q-3 13 -21 13h-138q-17 0 -22 -13l-53 -186q-3 -9 -3 -19q0 -14 12.5 -21t44.5 -12q20 -3 20 -24 q0 -22 -21 -22q-3 0 -38.5 2t-70.5 2q-34 0 -66 -2t-34 -2q-19 0 -19 22q0 20 20 23q54 10 64 44l224 733q14 42 67 42q51 0 63 -42zM260 956q-28 0 -45.5 19.5t-17.5 49.5t17.5 49.5t45.5 19.5q27 0 44.5 -19.5t17.5 -49.5t-17.5 -49.5t-44.5 -19.5zM434 956 q-27 0 -44.5 19.5t-17.5 49.5t17.5 49.5t44.5 19.5q28 0 45.5 -19.5t17.5 -49.5t-17.5 -49.5t-45.5 -19.5zM238 370q-4 -13 5 -13h124q9 0 6 13l-59 230q-5 18 -10 1z" glyph-name="Adieresis" horiz-adv-x="684" unicode="Ä"/><glyph d="M624 98q7 -27 21.5 -37t43.5 -16q21 -5 21 -24q0 -21 -20 -21q-2 0 -44 2t-88 2q-49 0 -105.5 -2t-58.5 -2q-21 0 -21 22q0 20 20 23q30 5 43 16t6 38l-48 185q-3 13 -21 13h-138q-17 0 -22 -13l-53 -186q-3 -9 -3 -19q0 -14 12.5 -21t44.5 -12q20 -3 20 -24 q0 -22 -21 -22q-3 0 -38.5 2t-70.5 2q-34 0 -66 -2t-34 -2q-19 0 -19 22q0 20 20 23q54 10 64 44l224 733q14 42 67 42q51 0 63 -42zM352 916q-53 0 -85 29t-32 77q0 49 31.5 79t84.5 30t84.5 -29t31.5 -77q0 -50 -31.5 -79.5t-83.5 -29.5zM315 1027q0 -73 37 -73 q35 0 35 73q0 66 -36 66t-36 -66zM238 370q-4 -13 5 -13h124q9 0 6 13l-59 230q-5 18 -10 1z" glyph-name="Aring" horiz-adv-x="684" unicode="Å"/><glyph d="M499 747q0 19 -10 19t-21 -28l-97 -235q-6 -12 9 -12h106q13 0 13 14v242zM-15 22q0 20 20 23q54 10 76 61l293 660q10 20 6.5 31.5t-23.5 19.5q-18 7 -18 23q0 20 19 20q8 0 40.5 -1t91 -2t129.5 -1q79 0 182.5 2t118.5 2q37 0 37 -30q0 -10 -1 -34t-1 -39l1 -74 q0 -15 -17 -15q-18 0 -29 25q-47 109 -164 109q-42 0 -57 -11.5t-15 -46.5v-219q0 -25 8 -32t40 -7h37q62 0 87 90q7 23 23 23q21 0 21 -23q0 -5 -2 -50.5t-2 -67.5q0 -20 2 -62t2 -48q0 -20 -19 -20t-25 22q-25 79 -87 79h-37q-33 0 -40.5 -6.5t-7.5 -32.5v-261 q0 -41 17 -56t68 -15q70 0 104 35t57 104q8 25 25 25q20 0 20 -25q0 -13 -1 -37.5t-1 -39.5q0 -18 1 -44.5t1 -34.5q0 -23 -12 -32t-39 -9q-14 0 -99.5 2t-151.5 2q-62 0 -110 -1t-74 -2t-33 -1q-27 0 -27 22q0 19 26 24q17 4 26.5 7.5t18.5 12.5t9 23v319q0 18 -18 18h-124 q-17 0 -25 -17l-122 -297q-12 -30 0 -44t57 -22q20 -3 20 -24q0 -22 -21 -22l-42 2q-41 2 -85 2q-39 0 -70 -1t-47 -2t-18 -1q-19 0 -19 22z" glyph-name="AE" horiz-adv-x="975" unicode="Æ"/><glyph d="M587 669q0 -18 -18 -18q-17 0 -24 18q-23 65 -63.5 106t-90.5 41q-89 0 -142.5 -105t-53.5 -281t56 -281t150 -105q55 0 89.5 42.5t63.5 127.5q7 21 23 21q20 0 20 -20q0 -10 -1 -37.5t-1 -50.5l2 -69q0 -28 -59 -51t-137 -23l-12 -51q41 0 68 -24t27 -61 q0 -40 -30 -64.5t-79 -24.5q-60 0 -91 31q-13 13 -1 26q9 10 24 2q28 -16 46 -16q38 0 38 43q0 25 -19.5 42t-48.5 17l19 84q-153 20 -242.5 138.5t-89.5 303.5q0 203 104 324.5t277 121.5q79 0 137.5 -23t58.5 -51q0 -2 -1 -21t-1 -35t1 -42.5t1 -34.5z" glyph-name="Ccedilla" horiz-adv-x="597" unicode="Ç"/><glyph d="M70 771q0 32 -54 44q-26 5 -26 23q0 9 7.5 15.5t19.5 6.5l84 -3q31 -1 189 -1q42 0 115 2t96 2q37 0 37 -30q0 -11 -1 -34.5t-1 -38.5l1 -74q0 -15 -17 -15q-18 0 -29 25q-47 109 -164 109q-43 0 -62.5 -12t-19.5 -46v-219q0 -25 8 -32t40 -7h47q62 0 87 90q7 23 23 23 q21 0 21 -23q0 -5 -2 -50.5t-2 -67.5q0 -20 2 -62t2 -48q0 -20 -19 -20t-25 22q-25 79 -87 79h-47q-33 0 -40.5 -6.5t-7.5 -32.5v-261q0 -39 21.5 -55t73.5 -16q70 0 104 35t57 104q8 25 25 25q20 0 20 -25l-2 -87q0 -18 1 -40t1 -29q0 -23 -12 -32t-39 -9q-18 0 -84.5 2 t-115.5 2q-167 0 -194 -1l-84 -3q-12 0 -19.5 6.5t-7.5 15.5q0 18 26 23q54 12 54 44v682zM138 1097q24 43 78 13q34 -20 70 -50.5t55 -51.5q18 -17 8 -34t-34 -12q-84 20 -150 59q-54 30 -27 76z" glyph-name="Egrave" horiz-adv-x="556" unicode="È"/><glyph d="M70 771q0 32 -54 44q-26 5 -26 23q0 9 7.5 15.5t19.5 6.5l84 -3q31 -1 189 -1q42 0 115 2t96 2q37 0 37 -30q0 -11 -1 -34.5t-1 -38.5l1 -74q0 -15 -17 -15q-18 0 -29 25q-47 109 -164 109q-43 0 -62.5 -12t-19.5 -46v-219q0 -25 8 -32t40 -7h47q62 0 87 90q7 23 23 23 q21 0 21 -23q0 -5 -2 -50.5t-2 -67.5q0 -20 2 -62t2 -48q0 -20 -19 -20t-25 22q-25 79 -87 79h-47q-33 0 -40.5 -6.5t-7.5 -32.5v-261q0 -39 21.5 -55t73.5 -16q70 0 104 35t57 104q8 25 25 25q20 0 20 -25l-2 -87q0 -18 1 -40t1 -29q0 -23 -12 -32t-39 -9q-18 0 -84.5 2 t-115.5 2q-167 0 -194 -1l-84 -3q-12 0 -19.5 6.5t-7.5 15.5q0 18 26 23q54 12 54 44v682zM431 1097q27 -46 -27 -76q-66 -39 -150 -59q-24 -5 -34 12t8 34q19 21 55 51.5t70 50.5q54 30 78 -13z" glyph-name="Eacute" horiz-adv-x="556" unicode="É"/><glyph d="M70 771q0 32 -54 44q-26 5 -26 23q0 9 7.5 15.5t19.5 6.5l84 -3q31 -1 189 -1q42 0 115 2t96 2q37 0 37 -30q0 -11 -1 -34.5t-1 -38.5l1 -74q0 -15 -17 -15q-18 0 -29 25q-47 109 -164 109q-43 0 -62.5 -12t-19.5 -46v-219q0 -25 8 -32t40 -7h47q62 0 87 90q7 23 23 23 q21 0 21 -23q0 -5 -2 -50.5t-2 -67.5q0 -20 2 -62t2 -48q0 -20 -19 -20t-25 22q-25 79 -87 79h-47q-33 0 -40.5 -6.5t-7.5 -32.5v-261q0 -39 21.5 -55t73.5 -16q70 0 104 35t57 104q8 25 25 25q20 0 20 -25l-2 -87q0 -18 1 -40t1 -29q0 -23 -12 -32t-39 -9q-18 0 -84.5 2 t-115.5 2q-167 0 -194 -1l-84 -3q-12 0 -19.5 6.5t-7.5 15.5q0 18 26 23q54 12 54 44v682zM173 989l79 119q5 8 17 8h46q12 0 17 -8l76 -119q15 -24 -7 -41q-8 -8 -23.5 -7.5t-26.5 13.5l-60 71l-61 -71q-20 -23 -45 -9q-12 7 -15.5 20t3.5 24z" glyph-name="Ecircumflex" horiz-adv-x="556" unicode="Ê"/><glyph d="M70 771q0 32 -54 44q-26 5 -26 23q0 9 7.5 15.5t19.5 6.5l84 -3q31 -1 189 -1q42 0 115 2t96 2q37 0 37 -30q0 -11 -1 -34.5t-1 -38.5l1 -74q0 -15 -17 -15q-18 0 -29 25q-47 109 -164 109q-43 0 -62.5 -12t-19.5 -46v-219q0 -25 8 -32t40 -7h47q62 0 87 90q7 23 23 23 q21 0 21 -23q0 -5 -2 -50.5t-2 -67.5q0 -20 2 -62t2 -48q0 -20 -19 -20t-25 22q-25 79 -87 79h-47q-33 0 -40.5 -6.5t-7.5 -32.5v-261q0 -39 21.5 -55t73.5 -16q70 0 104 35t57 104q8 25 25 25q20 0 20 -25l-2 -87q0 -18 1 -40t1 -29q0 -23 -12 -32t-39 -9q-18 0 -84.5 2 t-115.5 2q-167 0 -194 -1l-84 -3q-12 0 -19.5 6.5t-7.5 15.5q0 18 26 23q54 12 54 44v682zM199 956q-28 0 -45.5 19.5t-17.5 49.5t17.5 49.5t45.5 19.5q27 0 44.5 -19.5t17.5 -49.5t-17.5 -49.5t-44.5 -19.5zM373 956q-27 0 -44.5 19.5t-17.5 49.5t17.5 49.5t44.5 19.5 q28 0 45.5 -19.5t17.5 -49.5t-17.5 -49.5t-45.5 -19.5z" glyph-name="Edieresis" horiz-adv-x="556" unicode="Ë"/><glyph d="M77 769q0 22 -15.5 31.5t-44.5 16.5q-19 4 -19 23q0 20 20 20q4 0 25 -1.5t55 -3t71 -1.5q33 0 65 1.5t52.5 3t24.5 1.5q20 0 20 -20q0 -19 -19 -23t-30 -8.5t-20.5 -14.5t-9.5 -25v-678q0 -22 15.5 -31.5t44.5 -16.5q19 -4 19 -23q0 -20 -20 -20q-4 0 -24.5 1.5t-52.5 3 t-65 1.5q-37 0 -71 -1.5t-55 -3t-25 -1.5q-20 0 -20 20q0 19 19 23t30 8.5t20.5 14.5t9.5 25v678zM12 1097q24 43 78 13q34 -20 70 -50.5t55 -51.5q18 -17 8 -34t-34 -12q-84 20 -150 59q-54 30 -27 76z" glyph-name="Igrave" horiz-adv-x="328" unicode="Ì"/><glyph d="M77 769q0 22 -15.5 31.5t-44.5 16.5q-19 4 -19 23q0 20 20 20q4 0 25 -1.5t55 -3t71 -1.5q33 0 65 1.5t52.5 3t24.5 1.5q20 0 20 -20q0 -19 -19 -23t-30 -8.5t-20.5 -14.5t-9.5 -25v-678q0 -22 15.5 -31.5t44.5 -16.5q19 -4 19 -23q0 -20 -20 -20q-4 0 -24.5 1.5t-52.5 3 t-65 1.5q-37 0 -71 -1.5t-55 -3t-25 -1.5q-20 0 -20 20q0 19 19 23t30 8.5t20.5 14.5t9.5 25v678zM305 1097q27 -46 -27 -76q-66 -39 -150 -59q-24 -5 -34 12t8 34q19 21 55 51.5t70 50.5q54 30 78 -13z" glyph-name="Iacute" horiz-adv-x="328" unicode="Í"/><glyph d="M77 769q0 22 -15.5 31.5t-44.5 16.5q-19 4 -19 23q0 20 20 20q4 0 25 -1.5t55 -3t71 -1.5q33 0 65 1.5t52.5 3t24.5 1.5q20 0 20 -20q0 -19 -19 -23t-30 -8.5t-20.5 -14.5t-9.5 -25v-678q0 -22 15.5 -31.5t44.5 -16.5q19 -4 19 -23q0 -20 -20 -20q-4 0 -24.5 1.5t-52.5 3 t-65 1.5q-37 0 -71 -1.5t-55 -3t-25 -1.5q-20 0 -20 20q0 19 19 23t30 8.5t20.5 14.5t9.5 25v678zM47 989l79 119q5 8 17 8h46q12 0 17 -8l76 -119q15 -24 -7 -41q-8 -8 -23.5 -7.5t-26.5 13.5l-60 71l-61 -71q-20 -23 -45 -9q-12 7 -15.5 20t3.5 24z" glyph-name="Icircumflex" horiz-adv-x="328" unicode="Î"/><glyph d="M77 769q0 22 -15.5 31.5t-44.5 16.5q-19 4 -19 23q0 20 20 20q4 0 25 -1.5t55 -3t71 -1.5q33 0 65 1.5t52.5 3t24.5 1.5q20 0 20 -20q0 -19 -19 -23t-30 -8.5t-20.5 -14.5t-9.5 -25v-678q0 -22 15.5 -31.5t44.5 -16.5q19 -4 19 -23q0 -20 -20 -20q-4 0 -24.5 1.5t-52.5 3 t-65 1.5q-37 0 -71 -1.5t-55 -3t-25 -1.5q-20 0 -20 20q0 19 19 23t30 8.5t20.5 14.5t9.5 25v678zM73 956q-28 0 -45.5 19.5t-17.5 49.5t17.5 49.5t45.5 19.5q27 0 44.5 -19.5t17.5 -49.5t-17.5 -49.5t-44.5 -19.5zM247 956q-27 0 -44.5 19.5t-17.5 49.5t17.5 49.5 t44.5 19.5q28 0 45.5 -19.5t17.5 -49.5t-17.5 -49.5t-45.5 -19.5z" glyph-name="Idieresis" horiz-adv-x="328" unicode="Ï"/><glyph d="M337 55q98 0 148.5 94.5t50.5 279.5t-51 280.5t-151 95.5q-44 0 -61.5 -14.5t-17.5 -56.5v-271h89v-45h-89v-298q0 -40 20 -52.5t62 -12.5zM22 0q-22 0 -22 21q0 19 21 23q59 11 59 47v327h-80v45h80v306q0 36 -59 47q-21 4 -21 23q0 21 22 21q4 0 23.5 -1t54.5 -2t75 -1 q37 0 100.5 2t84.5 2q171 0 266 -113.5t95 -317.5q0 -203 -95 -316t-266 -113q-20 0 -78.5 1.5t-91.5 1.5q-54 0 -108.5 -1.5t-59.5 -1.5z" glyph-name="Eth" horiz-adv-x="716" unicode="Ð"/><glyph d="M590 80q0 -82 -65 -82q-36 0 -58 21t-49 77l-240 491q-14 28 -14 -3v-473q0 -23 15 -38t28.5 -20t35.5 -10q18 -4 18 -22q0 -21 -19 -21q-6 0 -41.5 3t-69.5 3q-32 0 -72.5 -3t-44.5 -3q-19 0 -19 21q0 18 18 22t29 8.5t21.5 20t10.5 39.5v655q0 23 -12.5 32t-42.5 16 q-21 5 -21 25q0 21 19 21q2 0 33.5 -1t68.5 -1q31 0 63 1t33 1q12 0 19 -8t19 -33l233 -475q14 -28 14 4v401q0 19 -6 31.5t-19 19.5t-24 10t-32 7q-18 3 -18 23t19 20q3 0 42.5 -3t80.5 -3q34 0 59.5 1.5t38 3t17.5 1.5q19 0 19 -20q0 -19 -18 -23q-22 -5 -34 -10 t-23.5 -20t-11.5 -38v-669zM387 943q-24 0 -60.5 16t-52.5 16q-22 0 -42 -14q-9 -6 -14 -6q-10 0 -10 14q0 35 22.5 64.5t52.5 29.5q21 0 58 -15.5t55 -15.5q24 0 40 16q7 7 12 7q11 0 11 -21q0 -35 -21 -63t-51 -28z" glyph-name="Ntilde" horiz-adv-x="672" unicode="Ñ"/><glyph d="M352 -16q-162 0 -259.5 121.5t-97.5 323.5q0 203 97.5 325t259.5 122t259 -122t97 -325t-97 -324t-259 -121zM352 44q81 0 126 101.5t45 283.5q0 183 -45 285t-126 102q-82 0 -127 -102t-45 -285q0 -182 45 -283.5t127 -101.5zM200 1097q24 43 78 13q34 -20 70 -50.5 t55 -51.5q18 -17 8 -34t-34 -12q-84 20 -150 59q-54 30 -27 76z" glyph-name="Ograve" horiz-adv-x="703" unicode="Ò"/><glyph d="M352 -16q-162 0 -259.5 121.5t-97.5 323.5q0 203 97.5 325t259.5 122t259 -122t97 -325t-97 -324t-259 -121zM352 44q81 0 126 101.5t45 283.5q0 183 -45 285t-126 102q-82 0 -127 -102t-45 -285q0 -182 45 -283.5t127 -101.5zM493 1097q27 -46 -27 -76q-66 -39 -150 -59 q-24 -5 -34 12t8 34q19 21 55 51.5t70 50.5q54 30 78 -13z" glyph-name="Oacute" horiz-adv-x="703" unicode="Ó"/><glyph d="M352 -16q-162 0 -259.5 121.5t-97.5 323.5q0 203 97.5 325t259.5 122t259 -122t97 -325t-97 -324t-259 -121zM352 44q81 0 126 101.5t45 283.5q0 183 -45 285t-126 102q-82 0 -127 -102t-45 -285q0 -182 45 -283.5t127 -101.5zM235 989l79 119q5 8 17 8h46q12 0 17 -8 l76 -119q15 -24 -7 -41q-8 -8 -23.5 -7.5t-26.5 13.5l-60 71l-61 -71q-20 -23 -45 -9q-12 7 -15.5 20t3.5 24z" glyph-name="Ocircumflex" horiz-adv-x="703" unicode="Ô"/><glyph d="M352 -16q-162 0 -259.5 121.5t-97.5 323.5q0 203 97.5 325t259.5 122t259 -122t97 -325t-97 -324t-259 -121zM352 44q81 0 126 101.5t45 283.5q0 183 -45 285t-126 102q-82 0 -127 -102t-45 -285q0 -182 45 -283.5t127 -101.5zM405 953q-24 0 -60.5 16t-52.5 16 q-22 0 -42 -14q-9 -6 -14 -6q-10 0 -10 14q0 35 22.5 64.5t52.5 29.5q21 0 58 -15.5t55 -15.5q24 0 40 16q7 7 12 7q11 0 11 -21q0 -35 -21 -63t-51 -28z" glyph-name="Otilde" horiz-adv-x="703" unicode="Õ"/><glyph d="M352 -16q-162 0 -259.5 121.5t-97.5 323.5q0 203 97.5 325t259.5 122t259 -122t97 -325t-97 -324t-259 -121zM352 44q81 0 126 101.5t45 283.5q0 183 -45 285t-126 102q-82 0 -127 -102t-45 -285q0 -182 45 -283.5t127 -101.5zM261 956q-28 0 -45.5 19.5t-17.5 49.5 t17.5 49.5t45.5 19.5q27 0 44.5 -19.5t17.5 -49.5t-17.5 -49.5t-44.5 -19.5zM435 956q-27 0 -44.5 19.5t-17.5 49.5t17.5 49.5t44.5 19.5q28 0 45.5 -19.5t17.5 -49.5t-17.5 -49.5t-45.5 -19.5z" glyph-name="Odieresis" horiz-adv-x="703" unicode="Ö"/><glyph d="M104 159q-12 -11 -26.5 -10t-25.5 12q-11 12 -11.5 26t10.5 25l99 99l-99 99q-10 11 -10 25.5t11 25.5t26 12t26 -10l99 -99l99 99q11 11 25 10.5t26 -11.5q11 -11 11.5 -26t-9.5 -26l-99 -99l99 -99q11 -11 10 -25.5t-12 -25.5q-12 -11 -25.5 -12t-25.5 10l-99 99z" glyph-name="multiply" unicode="×"/><glyph d="M352 -16q-97 0 -174 46l-24 -46h-57l40 75q-68 57 -105 152.5t-37 217.5q0 203 97.5 325t259.5 122q107 0 188 -56l30 56h57l-47 -88q128 -123 128 -359q0 -203 -97 -324t-259 -121zM352 44q81 0 126 101.5t45 283.5q0 125 -21 211l-270 -509q44 -87 120 -87zM180 429 q0 -140 28 -236l273 515q-46 108 -129 108q-82 0 -127 -102t-45 -285z" glyph-name="Oslash" horiz-adv-x="703" unicode="Ø"/><glyph d="M539 759q0 20 -10.5 33.5t-20.5 17.5t-25 7q-23 5 -23 24t23 19q2 0 34 -3t69 -3t67 3t32 3q23 0 23 -19t-23 -24q-15 -3 -25 -7t-20.5 -17.5t-10.5 -33.5v-538q0 -112 -63.5 -174.5t-178.5 -62.5q-145 0 -226.5 63t-81.5 184v528q0 20 -10.5 33.5t-20.5 17.5t-25 7 q-23 5 -23 24t23 19q5 0 25 -1.5t54 -3t72 -1.5q36 0 66 1.5t47.5 3t22.5 1.5q23 0 23 -19t-23 -24q-15 -3 -25 -7t-20.5 -17.5t-10.5 -33.5v-538q0 -172 151 -172q134 0 134 162v548zM225 1097q24 43 78 13q34 -20 70 -50.5t55 -51.5q18 -17 8 -34t-34 -12q-84 20 -150 59 q-54 30 -27 76z" glyph-name="Ugrave" horiz-adv-x="707" unicode="Ù"/><glyph d="M539 759q0 20 -10.5 33.5t-20.5 17.5t-25 7q-23 5 -23 24t23 19q2 0 34 -3t69 -3t67 3t32 3q23 0 23 -19t-23 -24q-15 -3 -25 -7t-20.5 -17.5t-10.5 -33.5v-538q0 -112 -63.5 -174.5t-178.5 -62.5q-145 0 -226.5 63t-81.5 184v528q0 20 -10.5 33.5t-20.5 17.5t-25 7 q-23 5 -23 24t23 19q5 0 25 -1.5t54 -3t72 -1.5q36 0 66 1.5t47.5 3t22.5 1.5q23 0 23 -19t-23 -24q-15 -3 -25 -7t-20.5 -17.5t-10.5 -33.5v-538q0 -172 151 -172q134 0 134 162v548zM518 1097q27 -46 -27 -76q-66 -39 -150 -59q-24 -5 -34 12t8 34q19 21 55 51.5t70 50.5 q54 30 78 -13z" glyph-name="Uacute" horiz-adv-x="707" unicode="Ú"/><glyph d="M539 759q0 20 -10.5 33.5t-20.5 17.5t-25 7q-23 5 -23 24t23 19q2 0 34 -3t69 -3t67 3t32 3q23 0 23 -19t-23 -24q-15 -3 -25 -7t-20.5 -17.5t-10.5 -33.5v-538q0 -112 -63.5 -174.5t-178.5 -62.5q-145 0 -226.5 63t-81.5 184v528q0 20 -10.5 33.5t-20.5 17.5t-25 7 q-23 5 -23 24t23 19q5 0 25 -1.5t54 -3t72 -1.5q36 0 66 1.5t47.5 3t22.5 1.5q23 0 23 -19t-23 -24q-15 -3 -25 -7t-20.5 -17.5t-10.5 -33.5v-538q0 -172 151 -172q134 0 134 162v548zM260 989l79 119q5 8 17 8h46q12 0 17 -8l76 -119q15 -24 -7 -41q-8 -8 -23.5 -7.5 t-26.5 13.5l-60 71l-61 -71q-20 -23 -45 -9q-12 7 -15.5 20t3.5 24z" glyph-name="Ucircumflex" horiz-adv-x="707" unicode="Û"/><glyph d="M539 759q0 20 -10.5 33.5t-20.5 17.5t-25 7q-23 5 -23 24t23 19q2 0 34 -3t69 -3t67 3t32 3q23 0 23 -19t-23 -24q-15 -3 -25 -7t-20.5 -17.5t-10.5 -33.5v-538q0 -112 -63.5 -174.5t-178.5 -62.5q-145 0 -226.5 63t-81.5 184v528q0 20 -10.5 33.5t-20.5 17.5t-25 7 q-23 5 -23 24t23 19q5 0 25 -1.5t54 -3t72 -1.5q36 0 66 1.5t47.5 3t22.5 1.5q23 0 23 -19t-23 -24q-15 -3 -25 -7t-20.5 -17.5t-10.5 -33.5v-538q0 -172 151 -172q134 0 134 162v548zM286 956q-28 0 -45.5 19.5t-17.5 49.5t17.5 49.5t45.5 19.5q27 0 44.5 -19.5t17.5 -49.5 t-17.5 -49.5t-44.5 -19.5zM460 956q-27 0 -44.5 19.5t-17.5 49.5t17.5 49.5t44.5 19.5q28 0 45.5 -19.5t17.5 -49.5t-17.5 -49.5t-45.5 -19.5z" glyph-name="Udieresis" horiz-adv-x="707" unicode="Ü"/><glyph d="M539 747q15 32 4 47t-54 23q-21 3 -21 23q0 9 5.5 14.5t12.5 5.5q2 0 42 -2.5t84 -2.5q42 0 79 2.5t38 2.5q19 0 19 -19q0 -17 -20 -22q-25 -6 -37.5 -10.5t-26.5 -17t-24 -33.5l-163 -342v-325q0 -22 15.5 -31.5t44.5 -16.5q19 -4 19 -23q0 -20 -20 -20q-4 0 -24.5 1.5 t-52.5 3t-65 1.5q-37 0 -71 -1.5t-55 -3t-25 -1.5q-20 0 -20 20q0 19 19 23t30 8.5t20.5 14.5t9.5 25v276l-202 398q-13 24 -29.5 34.5t-46.5 17.5q-24 6 -24 23q0 9 6 14.5t14 5.5q3 0 52.5 -2.5t101.5 -2.5q64 0 117.5 2.5t55.5 2.5q8 0 14 -5.5t6 -14.5q0 -18 -22 -23 q-37 -9 -45.5 -26.5t7.5 -48.5l111 -229q6 -12 12 0zM540 1097q27 -46 -27 -76q-66 -39 -150 -59q-24 -5 -34 12t8 34q19 21 55 51.5t70 50.5q54 30 78 -13z" glyph-name="Yacute" horiz-adv-x="748" unicode="Ý"/><glyph d="M79 769q0 22 -15.5 31.5t-44.5 16.5q-19 4 -19 23q0 20 20 20q4 0 25 -1.5t55 -3t71 -1.5q33 0 65 1.5t52.5 3t24.5 1.5q20 0 20 -20q0 -19 -19 -23t-30 -8.5t-20.5 -14.5t-9.5 -25v-61q0 -22 18 -22h8q7 0 26.5 1t31.5 1q121 0 193.5 -67.5t72.5 -180.5 q0 -125 -67.5 -200.5t-179.5 -75.5q-48 0 -85 22q-18 11 -18 -10v-85q0 -22 15.5 -31.5t44.5 -16.5q19 -4 19 -23q0 -20 -20 -20q-4 0 -24.5 1.5t-52.5 3t-65 1.5q-37 0 -71 -1.5t-55 -3t-25 -1.5q-20 0 -20 20q0 19 19 23t30 8.5t20.5 14.5t9.5 25v678zM254 294 q0 -70 69 -70q51 0 73.5 50t22.5 163q0 101 -28 148.5t-86 47.5q-26 0 -38.5 -8t-12.5 -29v-302z" glyph-name="Thorn" horiz-adv-x="589" unicode="Þ"/><glyph d="M29 0q-19 0 -19 21q0 18 18 22q14 3 23.5 8t18.5 20.5t9 39.5v528q0 108 73 172.5t195 64.5q89 0 138.5 -37t49.5 -103q0 -31 -11 -56t-26.5 -43t-31.5 -34.5t-27 -38.5t-11 -47q0 -35 23 -66t55.5 -57t65 -55t55.5 -74t23 -101q0 -82 -54.5 -131t-145.5 -49 q-69 0 -113.5 18.5t-44.5 50.5q0 5 2 27.5t2 43.5q0 24 -2 42.5t-2 20.5q0 25 22 25q19 0 25 -25q22 -89 50.5 -118.5t66.5 -29.5q29 0 45 17t16 48q0 45 -23.5 82.5t-57 65.5t-67 56.5t-57 70.5t-23.5 94q0 40 17 72.5t41.5 54.5t49 42.5t41.5 47.5t17 59t-23 49.5 t-65 17.5q-128 0 -128 -167v-538q0 -38 5.5 -50t25.5 -18q18 -6 18 -22q0 -21 -19 -21q-3 0 -36 3t-74 3q-46 0 -88 -3z" glyph-name="germandbls" horiz-adv-x="650" unicode="ß"/><glyph d="M129 872q24 43 78 13q34 -20 70 -50.5t55 -51.5q18 -17 8 -34t-34 -12q-84 20 -150 59q-54 30 -27 76zM0 130q0 87 73.5 158t210.5 120q13 4 13 18v100q0 49 -6.5 69t-25.5 20q-21 0 -39.5 -22.5t-42.5 -72.5q-14 -29 -23 -43.5t-25 -26t-36 -11.5q-25 0 -39.5 15.5 t-14.5 41.5q0 54 74.5 109.5t157.5 55.5t132.5 -38t49.5 -113v-411q0 -42 22 -42q9 0 22 8q14 8 23 2q9 -7 3 -23q-7 -21 -33 -32.5t-61 -11.5q-30 0 -59.5 12t-47.5 32q-4 5 -9 0q-62 -59 -159 -59q-71 0 -115.5 38.5t-44.5 106.5zM161 136q0 -87 64 -87q33 0 52.5 29.5 t19.5 75.5v193q0 8 -9 5q-66 -33 -96.5 -94t-30.5 -122z" glyph-name="agrave" horiz-adv-x="521" unicode="à"/><glyph d="M422 872q27 -46 -27 -76q-66 -39 -150 -59q-24 -5 -34 12t8 34q19 21 55 51.5t70 50.5q54 30 78 -13zM0 130q0 87 73.5 158t210.5 120q13 4 13 18v100q0 49 -6.5 69t-25.5 20q-21 0 -39.5 -22.5t-42.5 -72.5q-14 -29 -23 -43.5t-25 -26t-36 -11.5q-25 0 -39.5 15.5 t-14.5 41.5q0 54 74.5 109.5t157.5 55.5t132.5 -38t49.5 -113v-411q0 -42 22 -42q9 0 22 8q14 8 23 2q9 -7 3 -23q-7 -21 -33 -32.5t-61 -11.5q-30 0 -59.5 12t-47.5 32q-4 5 -9 0q-62 -59 -159 -59q-71 0 -115.5 38.5t-44.5 106.5zM161 136q0 -87 64 -87q33 0 52.5 29.5 t19.5 75.5v193q0 8 -9 5q-66 -33 -96.5 -94t-30.5 -122z" glyph-name="aacute" horiz-adv-x="521" unicode="á"/><glyph d="M0 130q0 87 73.5 158t210.5 120q13 4 13 18v100q0 49 -6.5 69t-25.5 20q-21 0 -39.5 -22.5t-42.5 -72.5q-14 -29 -23 -43.5t-25 -26t-36 -11.5q-25 0 -39.5 15.5t-14.5 41.5q0 54 74.5 109.5t157.5 55.5t132.5 -38t49.5 -113v-411q0 -42 22 -42q9 0 22 8q14 8 23 2 q9 -7 3 -23q-7 -21 -33 -32.5t-61 -11.5q-30 0 -59.5 12t-47.5 32q-4 5 -9 0q-62 -59 -159 -59q-71 0 -115.5 38.5t-44.5 106.5zM161 136q0 -87 64 -87q33 0 52.5 29.5t19.5 75.5v193q0 8 -9 5q-66 -33 -96.5 -94t-30.5 -122zM243 883q5 8 17 8h46q12 0 17 -8l76 -119 q15 -24 -7 -41q-8 -8 -23.5 -7.5t-26.5 13.5l-60 71l-61 -71q-20 -23 -45 -9q-12 7 -15.5 20t3.5 24z" glyph-name="acircumflex" horiz-adv-x="521" unicode="â"/><glyph d="M334 728q-24 0 -60.5 16t-52.5 16q-22 0 -42 -14q-9 -6 -14 -6q-10 0 -10 14q0 35 22.5 64.5t52.5 29.5q20 0 58 -15.5t55 -15.5q24 0 40 16q7 7 12 7q11 0 11 -21q0 -35 -21 -63t-51 -28zM0 130q0 87 73.5 158t210.5 120q13 4 13 18v100q0 49 -6.5 69t-25.5 20 q-21 0 -39.5 -22.5t-42.5 -72.5q-14 -29 -23 -43.5t-25 -26t-36 -11.5q-25 0 -39.5 15.5t-14.5 41.5q0 54 74.5 109.5t157.5 55.5t132.5 -38t49.5 -113v-411q0 -42 22 -42q9 0 22 8q14 8 23 2q9 -7 3 -23q-7 -21 -33 -32.5t-61 -11.5q-30 0 -59.5 12t-47.5 32q-4 5 -9 0 q-62 -59 -159 -59q-71 0 -115.5 38.5t-44.5 106.5zM161 136q0 -87 64 -87q33 0 52.5 29.5t19.5 75.5v193q0 8 -9 5q-66 -33 -96.5 -94t-30.5 -122z" glyph-name="atilde" horiz-adv-x="521" unicode="ã"/><glyph d="M190 731q-28 0 -45.5 19.5t-17.5 49.5t17.5 49.5t45.5 19.5q27 0 44.5 -19.5t17.5 -49.5t-17.5 -49.5t-44.5 -19.5zM364 731q-27 0 -44.5 19.5t-17.5 49.5t17.5 49.5t44.5 19.5q28 0 45.5 -19.5t17.5 -49.5t-17.5 -49.5t-45.5 -19.5zM0 130q0 87 73.5 158t210.5 120 q13 4 13 18v100q0 49 -6.5 69t-25.5 20q-21 0 -39.5 -22.5t-42.5 -72.5q-14 -29 -23 -43.5t-25 -26t-36 -11.5q-25 0 -39.5 15.5t-14.5 41.5q0 54 74.5 109.5t157.5 55.5t132.5 -38t49.5 -113v-411q0 -42 22 -42q9 0 22 8q14 8 23 2q9 -7 3 -23q-7 -21 -33 -32.5t-61 -11.5 q-30 0 -59.5 12t-47.5 32q-4 5 -9 0q-62 -59 -159 -59q-71 0 -115.5 38.5t-44.5 106.5zM161 136q0 -87 64 -87q33 0 52.5 29.5t19.5 75.5v193q0 8 -9 5q-66 -33 -96.5 -94t-30.5 -122z" glyph-name="adieresis" horiz-adv-x="521" unicode="ä"/><glyph d="M282 691q-53 0 -85 29t-32 77q0 49 31.5 79t84.5 30t84.5 -29t31.5 -77q0 -50 -31.5 -79.5t-83.5 -29.5zM245 802q0 -73 37 -73q35 0 35 73q0 66 -36 66t-36 -66zM0 130q0 87 73.5 158t210.5 120q13 4 13 18v100q0 49 -6.5 69t-25.5 20q-21 0 -39.5 -22.5t-42.5 -72.5 q-14 -29 -23 -43.5t-25 -26t-36 -11.5q-25 0 -39.5 15.5t-14.5 41.5q0 54 74.5 109.5t157.5 55.5t132.5 -38t49.5 -113v-411q0 -42 22 -42q9 0 22 8q14 8 23 2q9 -7 3 -23q-7 -21 -33 -32.5t-61 -11.5q-30 0 -59.5 12t-47.5 32q-4 5 -9 0q-62 -59 -159 -59 q-71 0 -115.5 38.5t-44.5 106.5zM161 136q0 -87 64 -87q33 0 52.5 29.5t19.5 75.5v193q0 8 -9 5q-66 -33 -96.5 -94t-30.5 -122z" glyph-name="aring" horiz-adv-x="521" unicode="å"/><glyph d="M0 120q0 77 74 152.5t203 123.5q13 6 13 19v111q0 49 -6 69t-24 20q-21 0 -38 -22t-41 -74q-34 -70 -88 -70q-22 0 -35.5 12.5t-13.5 34.5q0 54 72.5 109.5t155.5 55.5q85 0 136 -38q7 -6 15 -1q62 39 143 39q96 0 154 -66.5t58 -176.5q0 -56 -38 -56h-280q-9 0 -9 -7 q-1 -11 -1 -34q0 -131 42 -199t124 -68q59 0 119 53q14 12 28 2q12 -10 4 -26q-51 -98 -178 -98q-69 0 -121.5 31.5t-82.5 70.5q-5 6 -11 -1q-85 -101 -209 -101q-78 0 -121.5 35.5t-43.5 99.5zM159 136q0 -87 61 -87q32 0 51 29t19 76v192q0 8 -9 5q-64 -33 -93 -93.5 t-29 -121.5zM454 427q0 -10 9 -10h95q42 0 59.5 22t17.5 69q0 98 -66 98q-48 0 -80.5 -47t-34.5 -132z" glyph-name="ae" horiz-adv-x="773" unicode="æ"/><glyph d="M449 479q0 -13 -17 -13q-13 0 -20 15q-27 62 -56.5 93.5t-70.5 31.5q-61 0 -95.5 -72t-34.5 -201q0 -139 42 -210.5t123 -71.5q50 0 96 38q10 8 17 8t14 -7t7 -14q0 -8 -6 -15q-54 -74 -154 -77l-12 -51q41 0 68 -24t27 -61q0 -40 -30 -64.5t-79 -24.5q-60 0 -91 31 q-13 13 -1 26q9 10 24 2q28 -16 46 -16q38 0 38 43q0 25 -19.5 42t-48.5 17l19 84q-111 18 -180.5 108t-69.5 219q0 151 84.5 248.5t214.5 97.5q66 0 115.5 -26t49.5 -55q0 -5 -1 -19t-1 -26t1 -31.5t1 -24.5z" glyph-name="ccedilla" horiz-adv-x="464" unicode="ç"/><glyph d="M273 417q42 0 59.5 22t17.5 69q0 98 -66 98q-93 0 -114 -179q-1 -10 8 -10h95zM119 872q24 43 78 13q34 -20 70 -50.5t55 -51.5q18 -17 8 -34t-34 -12q-84 20 -150 59q-54 30 -27 76zM-5 312q0 158 78 253.5t208 95.5q96 0 154 -66.5t58 -176.5q0 -56 -38 -56h-280 q-9 0 -9 -7l-1 -34q0 -131 42 -199t124 -68q59 0 119 53q14 12 28 2q12 -10 4 -26q-22 -45 -74.5 -71.5t-117.5 -26.5q-134 0 -214.5 89t-80.5 238z" glyph-name="egrave" horiz-adv-x="488" unicode="è"/><glyph d="M273 417q42 0 59.5 22t17.5 69q0 98 -66 98q-93 0 -114 -179q-1 -10 8 -10h95zM412 872q27 -46 -27 -76q-66 -39 -150 -59q-24 -5 -34 12t8 34q19 21 55 51.5t70 50.5q54 30 78 -13zM-5 312q0 158 78 253.5t208 95.5q96 0 154 -66.5t58 -176.5q0 -56 -38 -56h-280 q-9 0 -9 -7l-1 -34q0 -131 42 -199t124 -68q59 0 119 53q14 12 28 2q12 -10 4 -26q-22 -45 -74.5 -71.5t-117.5 -26.5q-134 0 -214.5 89t-80.5 238z" glyph-name="eacute" horiz-adv-x="488" unicode="é"/><glyph d="M273 417q42 0 59.5 22t17.5 69q0 98 -66 98q-93 0 -114 -179q-1 -10 8 -10h95zM-5 312q0 158 78 253.5t208 95.5q96 0 154 -66.5t58 -176.5q0 -56 -38 -56h-280q-9 0 -9 -7l-1 -34q0 -131 42 -199t124 -68q59 0 119 53q14 12 28 2q12 -10 4 -26q-22 -45 -74.5 -71.5 t-117.5 -26.5q-134 0 -214.5 89t-80.5 238zM233 883q5 8 17 8h46q12 0 17 -8l76 -119q15 -24 -7 -41q-8 -8 -23.5 -7.5t-26.5 13.5l-60 71l-61 -71q-20 -23 -45 -9q-12 7 -15.5 20t3.5 24z" glyph-name="ecircumflex" horiz-adv-x="488" unicode="ê"/><glyph d="M273 417q42 0 59.5 22t17.5 69q0 98 -66 98q-93 0 -114 -179q-1 -10 8 -10h95zM180 731q-28 0 -45.5 19.5t-17.5 49.5t17.5 49.5t45.5 19.5q27 0 44.5 -19.5t17.5 -49.5t-17.5 -49.5t-44.5 -19.5zM354 731q-27 0 -44.5 19.5t-17.5 49.5t17.5 49.5t44.5 19.5 q28 0 45.5 -19.5t17.5 -49.5t-17.5 -49.5t-45.5 -19.5zM-5 312q0 158 78 253.5t208 95.5q96 0 154 -66.5t58 -176.5q0 -56 -38 -56h-280q-9 0 -9 -7l-1 -34q0 -131 42 -199t124 -68q59 0 119 53q14 12 28 2q12 -10 4 -26q-22 -45 -74.5 -71.5t-117.5 -26.5q-134 0 -214.5 89 t-80.5 238z" glyph-name="edieresis" horiz-adv-x="488" unicode="ë"/><glyph d="M234 106q0 -56 52 -68q17 -4 17 -19q0 -19 -18 -19q-4 0 -22.5 1.5t-48 3t-61.5 1.5q-31 0 -60.5 -1.5t-47.5 -3t-22 -1.5q-18 0 -18 19q0 15 17 19q52 12 52 68v406q0 20 -7 28.5t-23 12.5q-17 5 -17 21q0 15 17 18q113 17 155 59q8 8 17 8q18 0 18 -16v-537zM13 856 q24 43 78 13q34 -20 70 -50.5t55 -51.5q18 -17 8 -34t-34 -12q-84 20 -150 59q-54 30 -27 76z" glyph-name="igrave" horiz-adv-x="298" unicode="ì"/><glyph d="M234 106q0 -56 52 -68q17 -4 17 -19q0 -19 -18 -19q-4 0 -22.5 1.5t-48 3t-61.5 1.5q-31 0 -60.5 -1.5t-47.5 -3t-22 -1.5q-18 0 -18 19q0 15 17 19q52 12 52 68v406q0 20 -7 28.5t-23 12.5q-17 5 -17 21q0 15 17 18q113 17 155 59q8 8 17 8q18 0 18 -16v-537zM294 856 q27 -46 -27 -76q-66 -39 -150 -59q-24 -5 -34 12t8 34q19 21 55 51.5t70 50.5q54 30 78 -13z" glyph-name="iacute" horiz-adv-x="298" unicode="í"/><glyph d="M234 106q0 -56 52 -68q17 -4 17 -19q0 -19 -18 -19q-4 0 -22.5 1.5t-48 3t-61.5 1.5q-31 0 -60.5 -1.5t-47.5 -3t-22 -1.5q-18 0 -18 19q0 15 17 19q52 12 52 68v406q0 20 -7 28.5t-23 12.5q-17 5 -17 21q0 15 17 18q113 17 155 59q8 8 17 8q18 0 18 -16v-537zM36 753 l79 119q5 8 17 8h46q12 0 17 -8l76 -119q15 -24 -7 -41q-8 -8 -23.5 -7.5t-26.5 13.5l-60 71l-61 -71q-20 -23 -45 -9q-12 7 -15.5 20t3.5 24z" glyph-name="icircumflex" horiz-adv-x="298" unicode="î"/><glyph d="M234 106q0 -56 52 -68q17 -4 17 -19q0 -19 -18 -19q-4 0 -22.5 1.5t-48 3t-61.5 1.5q-31 0 -60.5 -1.5t-47.5 -3t-22 -1.5q-18 0 -18 19q0 15 17 19q52 12 52 68v406q0 20 -7 28.5t-23 12.5q-17 5 -17 21q0 15 17 18q113 17 155 59q8 8 17 8q18 0 18 -16v-537zM70 715 q-28 0 -45.5 19.5t-17.5 49.5t17.5 49.5t45.5 19.5q27 0 44.5 -19.5t17.5 -49.5t-17.5 -49.5t-44.5 -19.5zM244 715q-27 0 -44.5 19.5t-17.5 49.5t17.5 49.5t44.5 19.5q28 0 45.5 -19.5t17.5 -49.5t-17.5 -49.5t-45.5 -19.5z" glyph-name="idieresis" horiz-adv-x="298" unicode="ï"/><glyph d="M302 -16q-127 0 -209.5 97.5t-82.5 248.5q0 144 82.5 237.5t209.5 93.5q40 0 79 -11q-27 81 -75 160l-109 -62q-6 -3 -12 -3q-11 0 -20 12.5t-9 22.5q0 9 13 17l105 60q-39 54 -89 107q-11 11 -11 19t6 14q5 5 12 5q8 0 22 -9q67 -44 124 -99l94 54q6 3 12 3 q11 0 19.5 -12t8.5 -22q0 -12 -11 -18l-81 -47q95 -104 154.5 -233t59.5 -272q0 -162 -82 -262.5t-210 -100.5zM180 330q0 -291 122 -291t122 291q0 276 -115 276q-129 0 -129 -276z" glyph-name="eth" horiz-adv-x="574" unicode="ð"/><glyph d="M59 502q0 20 -7 28.5t-24 13.5q-16 4 -16 20q0 15 17 18q108 17 161 70q7 7 16 7q13 0 13 -12v-54q0 -13 11 0q60 68 134 68q83 0 136.5 -51.5t53.5 -140.5v-363q0 -35 14.5 -49t36.5 -19q18 -4 18 -20q0 -18 -19 -18l-42 3q-43 3 -83 3t-87 -3l-48 -3q-19 0 -19 18 q0 16 18 20q14 3 23.5 8t18.5 20.5t9 39.5v353q0 119 -76 119q-46 0 -72.5 -39t-26.5 -99v-334q0 -35 14.5 -49t36.5 -19q18 -4 18 -20q0 -18 -19 -18q-1 0 -47 3t-84 3q-31 0 -60 -1.5t-47 -3t-22 -1.5q-19 0 -19 18q0 16 18 20q14 3 23.5 8t18.5 20.5t9 39.5v396zM370 728 q-24 0 -60.5 16t-52.5 16q-22 0 -42 -14q-9 -6 -14 -6q-10 0 -10 14q0 35 22.5 64.5t52.5 29.5q20 0 58 -15.5t55 -15.5q24 0 40 16q7 7 12 7q11 0 11 -21q0 -35 -21 -63t-51 -28z" glyph-name="ntilde" horiz-adv-x="628" unicode="ñ"/><glyph d="M287 -16q-131 0 -209 94.5t-78 251.5q0 150 78.5 240.5t208.5 90.5t208.5 -90.5t78.5 -240.5q0 -157 -78 -251.5t-209 -94.5zM287 39q55 0 86 76.5t31 214.5q0 131 -31 203.5t-86 72.5t-86 -72.5t-31 -203.5q0 -138 31 -214.5t86 -76.5zM125 872q24 43 78 13 q34 -20 70 -50.5t55 -51.5q18 -17 8 -34t-34 -12q-84 20 -150 59q-54 30 -27 76z" glyph-name="ograve" horiz-adv-x="574" unicode="ò"/><glyph d="M287 -16q-131 0 -209 94.5t-78 251.5q0 150 78.5 240.5t208.5 90.5t208.5 -90.5t78.5 -240.5q0 -157 -78 -251.5t-209 -94.5zM287 39q55 0 86 76.5t31 214.5q0 131 -31 203.5t-86 72.5t-86 -72.5t-31 -203.5q0 -138 31 -214.5t86 -76.5zM418 872q27 -46 -27 -76 q-66 -39 -150 -59q-24 -5 -34 12t8 34q19 21 55 51.5t70 50.5q54 30 78 -13z" glyph-name="oacute" horiz-adv-x="574" unicode="ó"/><glyph d="M287 -16q-131 0 -209 94.5t-78 251.5q0 150 78.5 240.5t208.5 90.5t208.5 -90.5t78.5 -240.5q0 -157 -78 -251.5t-209 -94.5zM287 39q55 0 86 76.5t31 214.5q0 131 -31 203.5t-86 72.5t-86 -72.5t-31 -203.5q0 -138 31 -214.5t86 -76.5zM160 764l79 119q5 8 17 8h46 q12 0 17 -8l76 -119q15 -24 -7 -41q-8 -8 -23.5 -7.5t-26.5 13.5l-60 71l-61 -71q-20 -23 -45 -9q-12 7 -15.5 20t3.5 24z" glyph-name="ocircumflex" horiz-adv-x="574" unicode="ô"/><glyph d="M287 -16q-131 0 -209 94.5t-78 251.5q0 150 78.5 240.5t208.5 90.5t208.5 -90.5t78.5 -240.5q0 -157 -78 -251.5t-209 -94.5zM287 39q55 0 86 76.5t31 214.5q0 131 -31 203.5t-86 72.5t-86 -72.5t-31 -203.5q0 -138 31 -214.5t86 -76.5zM330 728q-24 0 -60.5 16t-52.5 16 q-22 0 -42 -14q-9 -6 -14 -6q-10 0 -10 14q0 35 22.5 64.5t52.5 29.5q20 0 58 -15.5t55 -15.5q24 0 40 16q7 7 12 7q11 0 11 -21q0 -35 -21 -63t-51 -28z" glyph-name="otilde" horiz-adv-x="574" unicode="õ"/><glyph d="M287 -16q-131 0 -209 94.5t-78 251.5q0 150 78.5 240.5t208.5 90.5t208.5 -90.5t78.5 -240.5q0 -157 -78 -251.5t-209 -94.5zM287 39q55 0 86 76.5t31 214.5q0 131 -31 203.5t-86 72.5t-86 -72.5t-31 -203.5q0 -138 31 -214.5t86 -76.5zM186 731q-28 0 -45.5 19.5 t-17.5 49.5t17.5 49.5t45.5 19.5q27 0 44.5 -19.5t17.5 -49.5t-17.5 -49.5t-44.5 -19.5zM360 731q-27 0 -44.5 19.5t-17.5 49.5t17.5 49.5t44.5 19.5q28 0 45.5 -19.5t17.5 -49.5t-17.5 -49.5t-45.5 -19.5z" glyph-name="odieresis" horiz-adv-x="574" unicode="ö"/><glyph d="M287 -16q-77 0 -135 33l-18 -33h-80l42 75q-96 94 -96 271q0 150 78.5 240.5t208.5 90.5q74 0 131 -30l17 30h79l-39 -69q99 -91 99 -262q0 -157 -78 -251.5t-209 -94.5zM287 39q55 0 86 76.5t31 214.5q0 64 -8 120l-192 -342q31 -69 83 -69zM170 330q0 -67 8 -125 l191 338q-31 63 -82 63q-55 0 -86 -72.5t-31 -203.5z" glyph-name="oslash" horiz-adv-x="574" unicode="ø"/><glyph d="M74 539q0 35 -14.5 49t-36.5 19q-18 4 -18 20q0 18 19 18q1 0 33 -2.5t60 -2.5q27 0 49.5 1t34.5 2.5t16 1.5q17 0 17 -16v-443q0 -119 76 -119q53 0 85 74q9 27 9 52v346q0 35 -14.5 49t-36.5 19q-18 4 -18 20q0 18 19 18q3 0 17.5 -1.5t37.5 -2.5t48 -1q31 0 60 2.5 t30 2.5q17 0 17 -16v-506q0 -20 7 -28.5t24 -13.5q16 -4 16 -19q0 -18 -17 -19q-101 -9 -157 -49q-11 -8 -18 -8q-14 0 -14 13v40q0 13 -9 4q-64 -59 -137 -59q-82 0 -133.5 51.5t-51.5 140.5v363zM154 866q24 43 78 13q34 -20 70 -50.5t55 -51.5q18 -17 8 -34t-34 -12 q-84 20 -150 59q-54 30 -27 76z" glyph-name="ugrave" horiz-adv-x="606" unicode="ù"/><glyph d="M74 539q0 35 -14.5 49t-36.5 19q-18 4 -18 20q0 18 19 18q1 0 33 -2.5t60 -2.5q27 0 49.5 1t34.5 2.5t16 1.5q17 0 17 -16v-443q0 -119 76 -119q53 0 85 74q9 27 9 52v346q0 35 -14.5 49t-36.5 19q-18 4 -18 20q0 18 19 18q3 0 17.5 -1.5t37.5 -2.5t48 -1q31 0 60 2.5 t30 2.5q17 0 17 -16v-506q0 -20 7 -28.5t24 -13.5q16 -4 16 -19q0 -18 -17 -19q-101 -9 -157 -49q-11 -8 -18 -8q-14 0 -14 13v40q0 13 -9 4q-64 -59 -137 -59q-82 0 -133.5 51.5t-51.5 140.5v363zM447 866q27 -46 -27 -76q-66 -39 -150 -59q-24 -5 -34 12t8 34 q19 21 55 51.5t70 50.5q54 30 78 -13z" glyph-name="uacute" horiz-adv-x="606" unicode="ú"/><glyph d="M74 539q0 35 -14.5 49t-36.5 19q-18 4 -18 20q0 18 19 18q1 0 33 -2.5t60 -2.5q27 0 49.5 1t34.5 2.5t16 1.5q17 0 17 -16v-443q0 -119 76 -119q53 0 85 74q9 27 9 52v346q0 35 -14.5 49t-36.5 19q-18 4 -18 20q0 18 19 18q3 0 17.5 -1.5t37.5 -2.5t48 -1q31 0 60 2.5 t30 2.5q17 0 17 -16v-506q0 -20 7 -28.5t24 -13.5q16 -4 16 -19q0 -18 -17 -19q-101 -9 -157 -49q-11 -8 -18 -8q-14 0 -14 13v40q0 13 -9 4q-64 -59 -137 -59q-82 0 -133.5 51.5t-51.5 140.5v363zM268 877q5 8 17 8h46q12 0 17 -8l76 -119q15 -24 -7 -41q-8 -8 -23.5 -7.5 t-26.5 13.5l-60 71l-61 -71q-20 -23 -45 -9q-12 7 -15.5 20t3.5 24z" glyph-name="ucircumflex" horiz-adv-x="606" unicode="û"/><glyph d="M74 539q0 35 -14.5 49t-36.5 19q-18 4 -18 20q0 18 19 18q1 0 33 -2.5t60 -2.5q27 0 49.5 1t34.5 2.5t16 1.5q17 0 17 -16v-443q0 -119 76 -119q53 0 85 74q9 27 9 52v346q0 35 -14.5 49t-36.5 19q-18 4 -18 20q0 18 19 18q3 0 17.5 -1.5t37.5 -2.5t48 -1q31 0 60 2.5 t30 2.5q17 0 17 -16v-506q0 -20 7 -28.5t24 -13.5q16 -4 16 -19q0 -18 -17 -19q-101 -9 -157 -49q-11 -8 -18 -8q-14 0 -14 13v40q0 13 -9 4q-64 -59 -137 -59q-82 0 -133.5 51.5t-51.5 140.5v363zM215 725q-28 0 -45.5 19.5t-17.5 49.5t17.5 49.5t45.5 19.5 q27 0 44.5 -19.5t17.5 -49.5t-17.5 -49.5t-44.5 -19.5zM389 725q-27 0 -44.5 19.5t-17.5 49.5t17.5 49.5t44.5 19.5q28 0 45.5 -19.5t17.5 -49.5t-17.5 -49.5t-45.5 -19.5z" glyph-name="udieresis" horiz-adv-x="606" unicode="ü"/><glyph d="M62 546q-10 28 -19 38t-29 17q-24 7 -24 25q0 19 19 19q3 0 19 -1t42.5 -2t57.5 -1q36 0 67 1t49 2t22 1q21 0 21 -20q0 -18 -22 -24q-29 -8 -36.5 -19.5t0.5 -37.5l86 -262q6 -17 12 0l83 256q10 30 -2 43t-49 23q-21 5 -21 23t19 18q3 0 17 -1t38.5 -2t53.5 -1 q25 0 46 1t33 2t15 1q18 0 18 -18t-22 -24q-22 -7 -34.5 -18t-20.5 -38l-174 -532q-23 -69 -40.5 -112t-44 -84.5t-60.5 -60.5t-78 -19q-47 0 -75 19t-28 50q0 22 12.5 35t33.5 13q22 0 43.5 -24t33.5 -24q35 0 107 185q7 18 7 43q0 15 -8 37zM430 863q27 -46 -27 -76 q-66 -39 -150 -59q-24 -5 -34 12t8 34q19 21 55 51.5t70 50.5q54 30 78 -13z" glyph-name="yacute" horiz-adv-x="573" unicode="ý"/><glyph d="M79 723q0 29 -7.5 41t-31.5 21q-18 7 -18 21q0 18 22 21q41 6 86.5 24.5t66.5 39.5q10 10 22 10q20 0 20 -16v-279q0 -9 6 -3q62 58 139 58q110 0 176.5 -90t66.5 -240q0 -157 -76.5 -252t-204.5 -95q-54 0 -96 15q-11 4 -11 -9v-124q0 -35 17 -48t53 -20q19 -4 19 -22 q0 -21 -19 -21l-49 3q-50 3 -96 3q-40 0 -87 -3t-48 -3q-19 0 -19 21q0 18 18 22q14 3 23.5 8t18.5 20.5t9 39.5v857zM239 146q0 -107 98 -107q64 0 92 70t28 229q0 248 -107 248q-51 0 -81 -37t-30 -95v-308z" glyph-name="thorn" horiz-adv-x="627" unicode="þ"/><glyph d="M62 546q-10 28 -19 38t-29 17q-24 7 -24 25q0 19 19 19q3 0 19 -1t42.5 -2t57.5 -1q36 0 67 1t49 2t22 1q21 0 21 -20q0 -18 -22 -24q-29 -8 -36.5 -19.5t0.5 -37.5l86 -262q6 -17 12 0l83 256q10 30 -2 43t-49 23q-21 5 -21 23t19 18q3 0 17 -1t38.5 -2t53.5 -1 q25 0 46 1t33 2t15 1q18 0 18 -18t-22 -24q-22 -7 -34.5 -18t-20.5 -38l-174 -532q-23 -69 -40.5 -112t-44 -84.5t-60.5 -60.5t-78 -19q-47 0 -75 19t-28 50q0 22 12.5 35t33.5 13q22 0 43.5 -24t33.5 -24q35 0 107 185q7 18 7 43q0 15 -8 37zM198 722q-28 0 -45.5 19.5 t-17.5 49.5t17.5 49.5t45.5 19.5q27 0 44.5 -19.5t17.5 -49.5t-17.5 -49.5t-44.5 -19.5zM372 722q-27 0 -44.5 19.5t-17.5 49.5t17.5 49.5t44.5 19.5q28 0 45.5 -19.5t17.5 -49.5t-17.5 -49.5t-45.5 -19.5z" glyph-name="ydieresis" horiz-adv-x="573" unicode="ÿ"/><glyph d="M234 106q0 -56 52 -68q17 -4 17 -19q0 -19 -18 -19q-4 0 -22.5 1.5t-48 3t-61.5 1.5q-31 0 -60.5 -1.5t-47.5 -3t-22 -1.5q-18 0 -18 19q0 15 17 19q52 12 52 68v406q0 20 -7 28.5t-23 12.5q-17 5 -17 21q0 15 17 18q113 17 155 59q8 8 17 8q18 0 18 -16v-537z" glyph-name="dotlessi" horiz-adv-x="298" unicode="ı"/><glyph d="M77 769q0 22 -15.5 31.5t-44.5 16.5q-19 4 -19 23q0 20 20 20q4 0 25 -1.5t55 -3t71 -1.5q33 0 65 1.5t52.5 3t24.5 1.5q20 0 20 -20q0 -19 -19 -23t-30 -8.5t-20.5 -14.5t-9.5 -25v-678q0 -22 15.5 -31.5t44.5 -16.5q19 -4 19 -23q0 -20 -20 -20q-4 0 -24.5 1.5t-52.5 3 t-65 1.5q-37 0 -71 -1.5t-55 -3t-25 -1.5q-20 0 -20 20q0 19 19 23t30 8.5t20.5 14.5t9.5 25v678zM401 749q0 35 -12.5 48.5t-38.5 19.5q-18 4 -18 23q0 20 19 20q2 0 48.5 -3t86.5 -3q46 0 95 3t50 3q19 0 19 -20q0 -19 -18 -23q-14 -3 -23 -6.5t-19 -10.5t-14.5 -19.5 t-4.5 -31.5v-615q0 -135 -64.5 -222.5t-164.5 -87.5q-59 0 -94 22t-35 59q0 20 12.5 32.5t32.5 12.5q17 0 30.5 -12.5t21 -28t20 -28t27.5 -12.5q26 0 35 46t9 151v683z" glyph-name="IJ" horiz-adv-x="650" unicode="Ĳ"/><glyph d="M154 711q-36 0 -59.5 24t-23.5 61t23.5 60.5t59.5 23.5t59.5 -23.5t23.5 -60.5t-23.5 -61t-59.5 -24zM234 106q0 -56 52 -68q17 -4 17 -19q0 -19 -18 -19q-4 0 -22.5 1.5t-48 3t-61.5 1.5q-31 0 -60.5 -1.5t-47.5 -3t-22 -1.5q-18 0 -18 19q0 15 17 19q52 12 52 68v406 q0 20 -7 28.5t-23 12.5q-17 5 -17 21q0 15 17 18q113 17 155 59q8 8 17 8q18 0 18 -16v-537zM333 498q0 20 -7 28.5t-23 12.5q-17 5 -17 21q0 15 17 18q43 7 89.5 23.5t65.5 35.5q8 8 17 8q18 0 18 -16v-640q0 -123 -55 -186.5t-144 -63.5q-57 0 -94 23t-37 59 q0 20 12.5 32.5t31.5 12.5q26 0 51.5 -35t44.5 -35q12 0 17.5 9t9 40.5t3.5 95.5v557zM413 711q-36 0 -59.5 24t-23.5 61t23.5 60.5t59.5 23.5t59.5 -23.5t23.5 -60.5t-23.5 -61t-59.5 -24z" glyph-name="ij" horiz-adv-x="532" unicode="ĳ"/><glyph d="M352 -16q-162 0 -259.5 121.5t-97.5 323.5q0 203 97.5 325t259.5 122q22 0 131 -10t196 -10q71 0 160.5 2t99.5 2q37 0 37 -30q0 -11 -1 -34.5t-1 -38.5l1 -70q0 -19 -17 -19q-18 0 -30 28q-22 52 -57 79.5t-106 27.5q-44 0 -60.5 -12.5t-16.5 -50.5v-215q0 -25 8 -32 t40 -7h32q76 0 94 86q6 27 25 27q22 0 22 -26q0 -5 -2 -49t-2 -66q0 -20 2 -60.5t2 -46.5q0 -23 -20 -23q-21 0 -27 25q-17 78 -94 78h-32q-33 0 -40.5 -6.5t-7.5 -32.5v-269q0 -39 22 -52.5t71 -13.5q72 0 103 33t54 104q9 28 27 28q19 0 19 -27l-2 -85q0 -18 1 -40t1 -29 q0 -23 -12 -32t-39 -9q-17 0 -88 2t-127 2q-82 0 -201 -10t-165 -10zM352 44q161 0 161 385q0 387 -161 387q-85 0 -128.5 -98t-43.5 -289q0 -385 172 -385z" glyph-name="OE" horiz-adv-x="994" unicode="Œ"/><glyph d="M287 -16q-131 0 -209 94.5t-78 251.5q0 150 78.5 240.5t208.5 90.5q125 0 204 -85q77 85 199 85q96 0 154 -66.5t58 -176.5q0 -56 -38 -56h-280q-9 0 -9 -7l-1 -34q0 -131 42 -199t124 -68q59 0 119 53q14 12 28 2q12 -10 4 -26q-23 -45 -75 -72t-117 -27q-131 0 -211 86 q-77 -86 -201 -86zM287 39q55 0 86 76.5t31 214.5q0 131 -31 203.5t-86 72.5t-86 -72.5t-31 -203.5q0 -138 31 -214.5t86 -76.5zM682 417q42 0 59.5 22t17.5 69q0 98 -66 98q-93 0 -114 -179q-1 -10 8 -10h95z" glyph-name="oe" horiz-adv-x="897" unicode="œ"/><glyph d="M417 618q-12 87 -59.5 142.5t-111.5 55.5q-40 0 -63.5 -25.5t-23.5 -68.5q0 -39 19 -73t49.5 -60t67 -52t73 -55t67 -63t49.5 -83t19 -108q0 -110 -74.5 -177t-192.5 -67q-99 0 -160 27t-61 62q0 9 2 47.5t2 70.5q0 23 -2 51.5t-2 34.5q0 25 23 25q19 0 24 -20 q31 -124 74.5 -181t116.5 -57q47 0 73 28.5t26 80.5t-19 95t-49 72.5t-66.5 56.5l-73 54t-66.5 56.5t-49 72t-19 93.5q0 101 69 162t184 61q71 0 135.5 -21t64.5 -52q0 -8 -1 -46t-1 -70l2 -78q0 -21 -19 -21q-22 0 -27 30zM311 1118q11 13 26.5 13.5t23.5 -7.5 q22 -17 7 -41l-76 -119q-5 -8 -17 -8h-46q-12 0 -17 8l-79 119q-7 11 -3.5 24t15.5 20q25 14 45 -9l61 -71z" glyph-name="Scaron" horiz-adv-x="508" unicode="Š"/><glyph d="M213 -16q-69 0 -125.5 16t-56.5 38q0 5 1 26t1 39q0 17 -1 37t-1 26q0 23 19 23q14 0 20 -17q48 -133 131 -133q36 0 56 21t20 59q0 51 -26.5 88t-64.5 61.5t-75.5 49.5t-64 65t-26.5 94q0 80 59 132t151 52q57 0 102.5 -14.5t45.5 -35.5q0 -4 -1 -22t-1 -31q0 -12 1 -28 t1 -21q0 -16 -16 -16q-12 0 -20 17q-23 49 -53 73t-60 24t-46.5 -18.5t-16.5 -51.5q0 -40 27 -71t65 -54.5t76 -51t65 -75t27 -111.5q0 -83 -60 -136.5t-153 -53.5zM275 873q11 13 26.5 13.5t23.5 -7.5q22 -17 7 -41l-76 -119q-5 -8 -17 -8h-46q-12 0 -17 8l-79 119 q-7 11 -3.5 24t15.5 20q25 14 45 -9l61 -71z" glyph-name="scaron" horiz-adv-x="426" unicode="š"/><glyph d="M457 757q-9 26 -23.5 37.5t-44.5 18.5q-20 5 -20 25q0 22 19 22q2 0 47 -2.5t95 -2.5q43 0 81 1.5t61 2.5t27 1q21 0 21 -23q0 -21 -18 -24q-45 -7 -57.5 -21.5t-3.5 -44.5l135 -462q4 -11 8 0l124 451q10 36 -5 53t-58 24q-21 3 -21 24q0 23 21 23q2 0 42.5 -2t80.5 -2 q32 0 59.5 1t44.5 2.5t21 1.5q9 0 15 -7t6 -17q0 -20 -19 -24q-47 -12 -66 -27t-30 -54l-187 -684q-14 -48 -61 -48q-49 0 -64 48l-104 319q-4 12 -8 1l-100 -320q-15 -48 -66 -48q-53 0 -70 48l-245 709q-9 26 -23 37t-45 19q-21 5 -21 25q0 22 20 22q1 0 51 -2.5t95 -2.5 q53 0 107.5 2.5t56.5 2.5q21 0 21 -23q0 -21 -20 -24q-44 -7 -55 -20.5t-1 -44.5l160 -484q5 -14 8 0l82 232q6 18 1 33zM518 1108q5 8 17 8h46q12 0 17 -8l76 -119q15 -24 -7 -41q-8 -8 -23.5 -7.5t-26.5 13.5l-60 71l-61 -71q-20 -23 -45 -9q-12 7 -15.5 20t3.5 24z" glyph-name="Wcircumflex" horiz-adv-x="1089" unicode="Ŵ"/><glyph d="M380 542q-10 28 -22 40t-39 20q-17 5 -21 17q-3 -11 -20 -16q-32 -9 -42 -24.5t0 -46.5l108 -320q7 -20 14 1l62 196q3 9 0 17zM387 73q-14 -42 -28 -57.5t-43 -15.5q-31 0 -48 16t-32 57l-171 467q-11 30 -23 42t-33 19q-24 7 -24 24q0 20 20 20q2 0 20.5 -1.5t49 -2.5 t62.5 -1q41 0 73 1t48.5 2.5t21.5 1.5q15 0 18 -12q4 12 19 12q4 0 22.5 -1.5t49 -2.5t62.5 -1q38 0 70.5 1t51 2.5t21.5 1.5q19 0 19 -18q0 -17 -22 -23q-32 -9 -42.5 -25t-0.5 -46l97 -315q7 -21 13 1l88 317q8 28 -3 43.5t-47 23.5q-23 5 -23 23q0 19 20 19q3 0 16.5 -1 t37 -2t52.5 -1q26 0 47.5 1t33 2t14.5 1q18 0 18 -18q0 -17 -23 -24q-24 -7 -34.5 -17.5t-18.5 -36.5l-149 -476q-13 -42 -27 -57.5t-42 -15.5q-33 0 -49 16t-30 57l-75 221zM429 877q5 8 17 8h46q12 0 17 -8l76 -119q15 -24 -7 -41q-8 -8 -23.5 -7.5t-26.5 13.5l-60 71 l-61 -71q-20 -23 -45 -9q-12 7 -15.5 20t3.5 24z" glyph-name="wcircumflex" horiz-adv-x="897" unicode="ŵ"/><glyph d="M539 747q15 32 4 47t-54 23q-21 3 -21 23q0 9 5.5 14.5t12.5 5.5q2 0 42 -2.5t84 -2.5q42 0 79 2.5t38 2.5q19 0 19 -19q0 -17 -20 -22q-25 -6 -37.5 -10.5t-26.5 -17t-24 -33.5l-163 -342v-325q0 -22 15.5 -31.5t44.5 -16.5q19 -4 19 -23q0 -20 -20 -20q-4 0 -24.5 1.5 t-52.5 3t-65 1.5q-37 0 -71 -1.5t-55 -3t-25 -1.5q-20 0 -20 20q0 19 19 23t30 8.5t20.5 14.5t9.5 25v276l-202 398q-13 24 -29.5 34.5t-46.5 17.5q-24 6 -24 23q0 9 6 14.5t14 5.5q3 0 52.5 -2.5t101.5 -2.5q64 0 117.5 2.5t55.5 2.5q8 0 14 -5.5t6 -14.5q0 -18 -22 -23 q-37 -9 -45.5 -26.5t7.5 -48.5l111 -229q6 -12 12 0zM361 1108q5 8 17 8h46q12 0 17 -8l76 -119q15 -24 -7 -41q-8 -8 -23.5 -7.5t-26.5 13.5l-60 71l-61 -71q-20 -23 -45 -9q-12 7 -15.5 20t3.5 24z" glyph-name="Ycircumflex" horiz-adv-x="748" unicode="Ŷ"/><glyph d="M62 546q-10 28 -19 38t-29 17q-24 7 -24 25q0 19 19 19q3 0 19 -1t42.5 -2t57.5 -1q36 0 67 1t49 2t22 1q21 0 21 -20q0 -18 -22 -24q-29 -8 -36.5 -19.5t0.5 -37.5l86 -262q6 -17 12 0l83 256q10 30 -2 43t-49 23q-21 5 -21 23t19 18q3 0 17 -1t38.5 -2t53.5 -1 q25 0 46 1t33 2t15 1q18 0 18 -18t-22 -24q-22 -7 -34.5 -18t-20.5 -38l-174 -532q-23 -69 -40.5 -112t-44 -84.5t-60.5 -60.5t-78 -19q-47 0 -75 19t-28 50q0 22 12.5 35t33.5 13q22 0 43.5 -24t33.5 -24q35 0 107 185q7 18 7 43q0 15 -8 37zM251 874q5 8 17 8h46 q12 0 17 -8l76 -119q15 -24 -7 -41q-8 -8 -23.5 -7.5t-26.5 13.5l-60 71l-61 -71q-20 -23 -45 -9q-12 7 -15.5 20t3.5 24z" glyph-name="ycircumflex" horiz-adv-x="573" unicode="ŷ"/><glyph d="M539 747q15 32 4 47t-54 23q-21 3 -21 23q0 9 5.5 14.5t12.5 5.5q2 0 42 -2.5t84 -2.5q42 0 79 2.5t38 2.5q19 0 19 -19q0 -17 -20 -22q-25 -6 -37.5 -10.5t-26.5 -17t-24 -33.5l-163 -342v-325q0 -22 15.5 -31.5t44.5 -16.5q19 -4 19 -23q0 -20 -20 -20q-4 0 -24.5 1.5 t-52.5 3t-65 1.5q-37 0 -71 -1.5t-55 -3t-25 -1.5q-20 0 -20 20q0 19 19 23t30 8.5t20.5 14.5t9.5 25v276l-202 398q-13 24 -29.5 34.5t-46.5 17.5q-24 6 -24 23q0 9 6 14.5t14 5.5q3 0 52.5 -2.5t101.5 -2.5q64 0 117.5 2.5t55.5 2.5q8 0 14 -5.5t6 -14.5q0 -18 -22 -23 q-37 -9 -45.5 -26.5t7.5 -48.5l111 -229q6 -12 12 0zM308 956q-28 0 -45.5 19.5t-17.5 49.5t17.5 49.5t45.5 19.5q27 0 44.5 -19.5t17.5 -49.5t-17.5 -49.5t-44.5 -19.5zM482 956q-27 0 -44.5 19.5t-17.5 49.5t17.5 49.5t44.5 19.5q28 0 45.5 -19.5t17.5 -49.5t-17.5 -49.5 t-45.5 -19.5z" glyph-name="Ydieresis" horiz-adv-x="748" unicode="Ÿ"/><glyph d="M301 856q68 0 167.5 2t112.5 2q19 0 19 -16q0 -7 -4 -15l-377 -750q-9 -16 10 -16h124q100 0 135 29t52 105q6 25 25 25q22 0 22 -25l-2 -87q0 -18 1 -40t1 -29q0 -23 -12 -32t-39 -9q-11 0 -104 1.5t-165 1.5q-69 0 -157.5 -1.5t-99.5 -1.5q-17 0 -17 13q0 5 4 13 l379 754q9 16 -10 16h-111q-47 0 -78.5 -7.5t-49.5 -25t-26 -31.5t-18 -39t-27 -25q-22 0 -22 21q0 10 1 31.5t1 36.5t-1 38.5t-1 34.5q0 30 37 30q20 0 105.5 -2t124.5 -2zM374 1112q11 13 26.5 13.5t23.5 -7.5q22 -17 7 -41l-76 -119q-5 -8 -17 -8h-46q-12 0 -17 8 l-79 119q-7 11 -3.5 24t15.5 20q25 14 45 -9l61 -71z" glyph-name="Zcaron" horiz-adv-x="590" unicode="Ž"/><glyph d="M269 574q8 18 -11 18h-70q-60 0 -87.5 -16t-40.5 -56q-8 -22 -22 -22q-17 0 -17 18q0 3 1 22t1 35q0 13 -1 32.5t-1 22.5q0 17 27 17q5 0 71 -1.5t123 -1.5q49 0 94.5 1t73 1.5t34.5 0.5q21 0 21 -16q0 -7 -4 -15l-268 -543q-8 -18 11 -18h97q43 0 68.5 12t36.5 28.5 t21 48.5q8 25 21 25q14 0 14 -21l-1 -62l1 -65q0 -19 -25 -19q-4 0 -77 1.5t-129 1.5q-64 0 -139.5 -1.5t-78.5 -1.5q-19 0 -19 14q0 4 3 12zM312 863q11 13 26.5 13.5t23.5 -7.5q22 -17 7 -41l-76 -119q-5 -8 -17 -8h-46q-12 0 -17 8l-79 119q-7 11 -3.5 24t15.5 20 q25 14 45 -9l61 -71z" glyph-name="zcaron" horiz-adv-x="461" unicode="ž"/><glyph d="M115 498q0 20 -7 28.5t-23 12.5q-17 5 -17 21q0 15 17 18q43 7 89.5 23.5t65.5 35.5q8 8 17 8q18 0 18 -16v-640q0 -123 -55 -186.5t-144 -63.5q-57 0 -94 23t-37 59q0 20 12.5 32.5t31.5 12.5q26 0 51.5 -35t44.5 -35q12 0 17.5 9t9 40.5t3.5 95.5v557z" glyph-name="uni0237" horiz-adv-x="311" unicode="ȷ"/><glyph d="M92 836q24 43 78 13q34 -20 70 -50.5t55 -51.5q18 -17 8 -34t-34 -12q-84 20 -150 59q-54 30 -27 76z" glyph-name="gravecomb" horiz-adv-x="0" unicode="̀"/><glyph d="M285 836q27 -46 -27 -76q-66 -39 -150 -59q-24 -5 -34 12t8 34q19 21 55 51.5t70 50.5q54 30 78 -13z" glyph-name="acutecomb" horiz-adv-x="0" unicode="́"/><glyph d="M109 733l79 119q5 8 17 8h46q12 0 17 -8l76 -119q15 -24 -7 -41q-8 -8 -23.5 -7.5t-26.5 13.5l-60 71l-61 -71q-20 -23 -45 -9q-12 7 -15.5 20t3.5 24z" glyph-name="uni0302" horiz-adv-x="0" unicode="̂"/><glyph d="M261 712q-24 0 -60.5 16t-52.5 16q-22 0 -42 -14q-9 -6 -14 -6q-10 0 -10 14q0 35 22.5 64.5t52.5 29.5q20 0 57.5 -15.5t55.5 -15.5q24 0 40 16q7 7 12 7q11 0 11 -21q0 -35 -21 -63t-51 -28z" glyph-name="tildecomb" horiz-adv-x="0" unicode="̃"/><glyph d="M156 715q-27 0 -44.5 19.5t-17.5 49.5t17.5 49.5t44.5 19.5q28 0 45.5 -19.5t17.5 -49.5t-17.5 -49.5t-45.5 -19.5z" glyph-name="uni0307" horiz-adv-x="0" unicode="̇"/><glyph d="M120 715q-28 0 -45.5 19.5t-17.5 49.5t17.5 49.5t45.5 19.5q27 0 44.5 -19.5t17.5 -49.5t-17.5 -49.5t-44.5 -19.5zM294 715q-27 0 -44.5 19.5t-17.5 49.5t17.5 49.5t44.5 19.5q28 0 45.5 -19.5t17.5 -49.5t-17.5 -49.5t-45.5 -19.5z" glyph-name="uni0308" horiz-adv-x="0" unicode="̈"/><glyph d="M149 645q-53 0 -85 29t-32 77q0 49 31.5 79t84.5 30t84.5 -29t31.5 -77q0 -50 -31.5 -79.5t-83.5 -29.5zM112 756q0 -73 37 -73q35 0 35 73q0 66 -36 66t-36 -66z" glyph-name="uni030A" horiz-adv-x="0" unicode="̊"/><glyph d="M267 847q11 13 26.5 13.5t23.5 -7.5q22 -17 7 -41l-76 -119q-5 -8 -17 -8h-46q-12 0 -17 8l-79 119q-7 11 -3.5 24t15.5 20q25 14 45 -9l61 -71z" glyph-name="uni030C" horiz-adv-x="0" unicode="̌"/><glyph d="M144 -231q-60 0 -91 31q-13 13 -1 26q9 10 24 2q28 -16 46 -16q38 0 38 43q0 25 -19.5 42t-48.5 17l21 95h60l-15 -66q41 0 68 -24t27 -61q0 -40 -30 -64.5t-79 -24.5z" glyph-name="uni0327" horiz-adv-x="0" unicode="̧"/><glyph d="M457 757q-9 26 -23.5 37.5t-44.5 18.5q-20 5 -20 25q0 22 19 22q2 0 47 -2.5t95 -2.5q43 0 81 1.5t61 2.5t27 1q21 0 21 -23q0 -21 -18 -24q-45 -7 -57.5 -21.5t-3.5 -44.5l135 -462q4 -11 8 0l124 451q10 36 -5 53t-58 24q-21 3 -21 24q0 23 21 23q2 0 42.5 -2t80.5 -2 q32 0 59.5 1t44.5 2.5t21 1.5q9 0 15 -7t6 -17q0 -20 -19 -24q-47 -12 -66 -27t-30 -54l-187 -684q-14 -48 -61 -48q-49 0 -64 48l-104 319q-4 12 -8 1l-100 -320q-15 -48 -66 -48q-53 0 -70 48l-245 709q-9 26 -23 37t-45 19q-21 5 -21 25q0 22 20 22q1 0 51 -2.5t95 -2.5 q53 0 107.5 2.5t56.5 2.5q21 0 21 -23q0 -21 -20 -24q-44 -7 -55 -20.5t-1 -44.5l160 -484q5 -14 8 0l82 232q6 18 1 33zM404 1097q24 43 78 13q34 -20 70 -50.5t55 -51.5q18 -17 8 -34t-34 -12q-84 20 -150 59q-54 30 -27 76z" glyph-name="Wgrave" horiz-adv-x="1089" unicode="Ẁ"/><glyph d="M380 542q-10 28 -22 40t-39 20q-17 5 -21 17q-3 -11 -20 -16q-32 -9 -42 -24.5t0 -46.5l108 -320q7 -20 14 1l62 196q3 9 0 17zM387 73q-14 -42 -28 -57.5t-43 -15.5q-31 0 -48 16t-32 57l-171 467q-11 30 -23 42t-33 19q-24 7 -24 24q0 20 20 20q2 0 20.5 -1.5t49 -2.5 t62.5 -1q41 0 73 1t48.5 2.5t21.5 1.5q15 0 18 -12q4 12 19 12q4 0 22.5 -1.5t49 -2.5t62.5 -1q38 0 70.5 1t51 2.5t21.5 1.5q19 0 19 -18q0 -17 -22 -23q-32 -9 -42.5 -25t-0.5 -46l97 -315q7 -21 13 1l88 317q8 28 -3 43.5t-47 23.5q-23 5 -23 23q0 19 20 19q3 0 16.5 -1 t37 -2t52.5 -1q26 0 47.5 1t33 2t14.5 1q18 0 18 -18q0 -17 -23 -24q-24 -7 -34.5 -17.5t-18.5 -36.5l-149 -476q-13 -42 -27 -57.5t-42 -15.5q-33 0 -49 16t-30 57l-75 221zM315 866q24 43 78 13q34 -20 70 -50.5t55 -51.5q18 -17 8 -34t-34 -12q-84 20 -150 59 q-54 30 -27 76z" glyph-name="wgrave" horiz-adv-x="897" unicode="ẁ"/><glyph d="M457 757q-9 26 -23.5 37.5t-44.5 18.5q-20 5 -20 25q0 22 19 22q2 0 47 -2.5t95 -2.5q43 0 81 1.5t61 2.5t27 1q21 0 21 -23q0 -21 -18 -24q-45 -7 -57.5 -21.5t-3.5 -44.5l135 -462q4 -11 8 0l124 451q10 36 -5 53t-58 24q-21 3 -21 24q0 23 21 23q2 0 42.5 -2t80.5 -2 q32 0 59.5 1t44.5 2.5t21 1.5q9 0 15 -7t6 -17q0 -20 -19 -24q-47 -12 -66 -27t-30 -54l-187 -684q-14 -48 -61 -48q-49 0 -64 48l-104 319q-4 12 -8 1l-100 -320q-15 -48 -66 -48q-53 0 -70 48l-245 709q-9 26 -23 37t-45 19q-21 5 -21 25q0 22 20 22q1 0 51 -2.5t95 -2.5 q53 0 107.5 2.5t56.5 2.5q21 0 21 -23q0 -21 -20 -24q-44 -7 -55 -20.5t-1 -44.5l160 -484q5 -14 8 0l82 232q6 18 1 33zM697 1097q27 -46 -27 -76q-66 -39 -150 -59q-24 -5 -34 12t8 34q19 21 55 51.5t70 50.5q54 30 78 -13z" glyph-name="Wacute" horiz-adv-x="1089" unicode="Ẃ"/><glyph d="M380 542q-10 28 -22 40t-39 20q-17 5 -21 17q-3 -11 -20 -16q-32 -9 -42 -24.5t0 -46.5l108 -320q7 -20 14 1l62 196q3 9 0 17zM387 73q-14 -42 -28 -57.5t-43 -15.5q-31 0 -48 16t-32 57l-171 467q-11 30 -23 42t-33 19q-24 7 -24 24q0 20 20 20q2 0 20.5 -1.5t49 -2.5 t62.5 -1q41 0 73 1t48.5 2.5t21.5 1.5q15 0 18 -12q4 12 19 12q4 0 22.5 -1.5t49 -2.5t62.5 -1q38 0 70.5 1t51 2.5t21.5 1.5q19 0 19 -18q0 -17 -22 -23q-32 -9 -42.5 -25t-0.5 -46l97 -315q7 -21 13 1l88 317q8 28 -3 43.5t-47 23.5q-23 5 -23 23q0 19 20 19q3 0 16.5 -1 t37 -2t52.5 -1q26 0 47.5 1t33 2t14.5 1q18 0 18 -18q0 -17 -23 -24q-24 -7 -34.5 -17.5t-18.5 -36.5l-149 -476q-13 -42 -27 -57.5t-42 -15.5q-33 0 -49 16t-30 57l-75 221zM608 866q27 -46 -27 -76q-66 -39 -150 -59q-24 -5 -34 12t8 34q19 21 55 51.5t70 50.5 q54 30 78 -13z" glyph-name="wacute" horiz-adv-x="897" unicode="ẃ"/><glyph d="M457 757q-9 26 -23.5 37.5t-44.5 18.5q-20 5 -20 25q0 22 19 22q2 0 47 -2.5t95 -2.5q43 0 81 1.5t61 2.5t27 1q21 0 21 -23q0 -21 -18 -24q-45 -7 -57.5 -21.5t-3.5 -44.5l135 -462q4 -11 8 0l124 451q10 36 -5 53t-58 24q-21 3 -21 24q0 23 21 23q2 0 42.5 -2t80.5 -2 q32 0 59.5 1t44.5 2.5t21 1.5q9 0 15 -7t6 -17q0 -20 -19 -24q-47 -12 -66 -27t-30 -54l-187 -684q-14 -48 -61 -48q-49 0 -64 48l-104 319q-4 12 -8 1l-100 -320q-15 -48 -66 -48q-53 0 -70 48l-245 709q-9 26 -23 37t-45 19q-21 5 -21 25q0 22 20 22q1 0 51 -2.5t95 -2.5 q53 0 107.5 2.5t56.5 2.5q21 0 21 -23q0 -21 -20 -24q-44 -7 -55 -20.5t-1 -44.5l160 -484q5 -14 8 0l82 232q6 18 1 33zM465 956q-28 0 -45.5 19.5t-17.5 49.5t17.5 49.5t45.5 19.5q27 0 44.5 -19.5t17.5 -49.5t-17.5 -49.5t-44.5 -19.5zM639 956q-27 0 -44.5 19.5 t-17.5 49.5t17.5 49.5t44.5 19.5q28 0 45.5 -19.5t17.5 -49.5t-17.5 -49.5t-45.5 -19.5z" glyph-name="Wdieresis" horiz-adv-x="1089" unicode="Ẅ"/><glyph d="M380 542q-10 28 -22 40t-39 20q-17 5 -21 17q-3 -11 -20 -16q-32 -9 -42 -24.5t0 -46.5l108 -320q7 -20 14 1l62 196q3 9 0 17zM387 73q-14 -42 -28 -57.5t-43 -15.5q-31 0 -48 16t-32 57l-171 467q-11 30 -23 42t-33 19q-24 7 -24 24q0 20 20 20q2 0 20.5 -1.5t49 -2.5 t62.5 -1q41 0 73 1t48.5 2.5t21.5 1.5q15 0 18 -12q4 12 19 12q4 0 22.5 -1.5t49 -2.5t62.5 -1q38 0 70.5 1t51 2.5t21.5 1.5q19 0 19 -18q0 -17 -22 -23q-32 -9 -42.5 -25t-0.5 -46l97 -315q7 -21 13 1l88 317q8 28 -3 43.5t-47 23.5q-23 5 -23 23q0 19 20 19q3 0 16.5 -1 t37 -2t52.5 -1q26 0 47.5 1t33 2t14.5 1q18 0 18 -18q0 -17 -23 -24q-24 -7 -34.5 -17.5t-18.5 -36.5l-149 -476q-13 -42 -27 -57.5t-42 -15.5q-33 0 -49 16t-30 57l-75 221zM376 725q-28 0 -45.5 19.5t-17.5 49.5t17.5 49.5t45.5 19.5q27 0 44.5 -19.5t17.5 -49.5 t-17.5 -49.5t-44.5 -19.5zM550 725q-27 0 -44.5 19.5t-17.5 49.5t17.5 49.5t44.5 19.5q28 0 45.5 -19.5t17.5 -49.5t-17.5 -49.5t-45.5 -19.5z" glyph-name="wdieresis" horiz-adv-x="897" unicode="ẅ"/><glyph d="M539 747q15 32 4 47t-54 23q-21 3 -21 23q0 9 5.5 14.5t12.5 5.5q2 0 42 -2.5t84 -2.5q42 0 79 2.5t38 2.5q19 0 19 -19q0 -17 -20 -22q-25 -6 -37.5 -10.5t-26.5 -17t-24 -33.5l-163 -342v-325q0 -22 15.5 -31.5t44.5 -16.5q19 -4 19 -23q0 -20 -20 -20q-4 0 -24.5 1.5 t-52.5 3t-65 1.5q-37 0 -71 -1.5t-55 -3t-25 -1.5q-20 0 -20 20q0 19 19 23t30 8.5t20.5 14.5t9.5 25v276l-202 398q-13 24 -29.5 34.5t-46.5 17.5q-24 6 -24 23q0 9 6 14.5t14 5.5q3 0 52.5 -2.5t101.5 -2.5q64 0 117.5 2.5t55.5 2.5q8 0 14 -5.5t6 -14.5q0 -18 -22 -23 q-37 -9 -45.5 -26.5t7.5 -48.5l111 -229q6 -12 12 0zM247 1097q24 43 78 13q34 -20 70 -50.5t55 -51.5q18 -17 8 -34t-34 -12q-84 20 -150 59q-54 30 -27 76z" glyph-name="Ygrave" horiz-adv-x="748" unicode="Ỳ"/><glyph d="M62 546q-10 28 -19 38t-29 17q-24 7 -24 25q0 19 19 19q3 0 19 -1t42.5 -2t57.5 -1q36 0 67 1t49 2t22 1q21 0 21 -20q0 -18 -22 -24q-29 -8 -36.5 -19.5t0.5 -37.5l86 -262q6 -17 12 0l83 256q10 30 -2 43t-49 23q-21 5 -21 23t19 18q3 0 17 -1t38.5 -2t53.5 -1 q25 0 46 1t33 2t15 1q18 0 18 -18t-22 -24q-22 -7 -34.5 -18t-20.5 -38l-174 -532q-23 -69 -40.5 -112t-44 -84.5t-60.5 -60.5t-78 -19q-47 0 -75 19t-28 50q0 22 12.5 35t33.5 13q22 0 43.5 -24t33.5 -24q35 0 107 185q7 18 7 43q0 15 -8 37zM137 863q24 43 78 13 q34 -20 70 -50.5t55 -51.5q18 -17 8 -34t-34 -12q-84 20 -150 59q-54 30 -27 76z" glyph-name="ygrave" horiz-adv-x="573" unicode="ỳ"/><glyph d="M78 253q-12 0 -17 7.5t-1 19.5l15 43q7 20 31 20h417q12 0 17 -7.5t1 -19.5l-15 -43q-8 -20 -31 -20h-417z" glyph-name="endash" horiz-adv-x="600" unicode="–"/><glyph d="M45 253q-12 0 -17 7.5t-1 19.5l13 43q6 20 31 20h871q12 0 17 -7.5t1 -19.5l-13 -43q-6 -20 -31 -20h-871z" glyph-name="emdash" horiz-adv-x="1000" unicode="—"/><glyph d="M153 870q7 6 17.5 6t17.5 -7q15 -15 1 -33q-14 -16 -23 -28t-22 -30.5t-11.5 -24.5t8.5 -10q26 0 42.5 -19t16.5 -48q0 -30 -18.5 -49.5t-46.5 -19.5q-30 0 -49.5 22t-19.5 58q0 103 87 183z" glyph-name="quoteleft" horiz-adv-x="300" unicode="‘"/><glyph d="M131 613q-7 -6 -17.5 -6t-17.5 7q-15 15 -1 33q14 16 23 28t22 30.5t11.5 24.5t-8.5 10q-26 0 -42.5 19t-16.5 48q0 30 18.5 49.5t46.5 19.5q30 0 49.5 -22t19.5 -58q0 -103 -87 -183z" glyph-name="quoteright" horiz-adv-x="300" unicode="’"/><glyph d="M133 -127q-7 -6 -17.5 -6t-17.5 7q-15 15 -1 33q14 16 23 28t22 30.5t11.5 24.5t-8.5 10q-26 0 -42.5 19t-16.5 48q0 30 18.5 49.5t46.5 19.5q30 0 49.5 -22t19.5 -58q0 -103 -87 -183z" glyph-name="quotesinglbase" horiz-adv-x="300" unicode="‚"/><glyph d="M298 870q7 6 17.5 6t17.5 -7q15 -15 1 -33q-14 -16 -23 -28t-22 -30.5t-11.5 -24.5t8.5 -10q26 0 42.5 -19t16.5 -48q0 -30 -18.5 -49.5t-46.5 -19.5q-30 0 -49.5 22t-19.5 58q0 103 87 183zM134 870q7 6 17.5 6t17.5 -7q15 -15 1 -33q-14 -16 -23 -28t-22 -30.5 t-11.5 -24.5t8.5 -10q26 0 42.5 -19t16.5 -48q0 -30 -18.5 -49.5t-46.5 -19.5q-30 0 -49.5 22t-19.5 58q0 103 87 183z" glyph-name="quotedblleft" unicode="“"/><glyph d="M94 613q-7 -6 -17.5 -6t-17.5 7q-15 15 -1 33q14 16 23 28t22 30.5t11.5 24.5t-8.5 10q-26 0 -42.5 19t-16.5 48q0 30 18.5 49.5t46.5 19.5q30 0 49.5 -22t19.5 -58q0 -103 -87 -183zM268 613q-7 -6 -17.5 -6t-17.5 7q-15 15 -1 33q14 16 23 28t22 30.5t11.5 24.5 t-8.5 10q-26 0 -42.5 19t-16.5 48q0 30 18.5 49.5t46.5 19.5q30 0 49.5 -22t19.5 -58q0 -103 -87 -183z" glyph-name="quotedblright" unicode="”"/><glyph d="M107 -127q-7 -6 -17.5 -6t-17.5 7q-15 15 -1 33q14 16 23 28t22 30.5t11.5 24.5t-8.5 10q-26 0 -42.5 19t-16.5 48q0 30 18.5 49.5t46.5 19.5q30 0 49.5 -22t19.5 -58q0 -103 -87 -183zM271 -127q-7 -6 -17.5 -6t-17.5 7q-15 15 -1 33q14 16 23 28t22 30.5t11.5 24.5 t-8.5 10q-26 0 -42.5 19t-16.5 48q0 30 18.5 49.5t46.5 19.5q30 0 49.5 -22t19.5 -58q0 -103 -87 -183z" glyph-name="quotedblbase" unicode="„"/><glyph d="M302 219q-46 0 -77 36t-31 90q0 55 30.5 90t77.5 35t77.5 -35t30.5 -90q0 -54 -31 -90t-77 -36z" glyph-name="bullet" horiz-adv-x="600" unicode="•"/><glyph d="M94 0q-31 0 -51.5 24t-20.5 60q0 37 20 60t52 23t52 -23t20 -60q0 -36 -20.5 -60t-51.5 -24zM294 0q-31 0 -51.5 24t-20.5 60q0 37 20 60t52 23t52 -23t20 -60q0 -36 -20.5 -60t-51.5 -24zM494 0q-31 0 -51.5 24t-20.5 60q0 37 20 60t52 23t52 -23t20 -60 q0 -36 -20.5 -60t-51.5 -24z" glyph-name="ellipsis" horiz-adv-x="600" unicode="…"/><glyph d="M61 290q0 13 17 30l136 134q20 20 40 6q17 -13 6 -32l-79 -138l79 -138q11 -18 -5 -31q-21 -15 -42 6l-135 133q-17 17 -17 30z" glyph-name="guilsinglleft" horiz-adv-x="300" unicode="‹"/><glyph d="M60 428q-11 19 6 32q20 14 40 -6l136 -134q17 -17 17 -30t-17 -30l-135 -133q-21 -21 -42 -6q-16 13 -5 31l79 138z" glyph-name="guilsinglright" horiz-adv-x="300" unicode="›"/><glyph d="M657 669q0 -18 -18 -18q-17 0 -24 18q-23 65 -63.5 106t-90.5 41q-74 0 -124.5 -75t-65.5 -206h225q25 0 25 -27q0 -28 -25 -28h-230l-1 -50l1 -45h230q25 0 25 -27q0 -28 -25 -28h-226q15 -133 68.5 -209.5t132.5 -76.5q55 0 89.5 42.5t63.5 127.5q7 21 23 21 q20 0 20 -20q0 -10 -1 -37.5t-1 -50.5l2 -69q0 -28 -59 -51t-137 -23q-154 0 -256 93t-127 253h-48q-25 0 -25 28q0 27 25 27h41l-1 45l2 50h-42q-25 0 -25 28q0 27 25 27h48q26 158 125 249.5t248 91.5q79 0 137.5 -23t58.5 -51q0 -2 -1 -21t-1 -35t1 -42.5t1 -34.5z" glyph-name="Euro" horiz-adv-x="700" unicode="€"/><glyph d="M71 831q0 9 -9 9h-2q-12 0 -20 -7t-10.5 -12.5t-5.5 -15.5q-2 -5 -6 -5q-6 0 -6 6q0 1 0.5 6.5t0.5 13.5l-1 26q0 8 10 8q3 0 27.5 -1.5t43.5 -1.5q20 0 45 1.5t27 1.5q10 0 10 -8l-1 -26q0 -8 0.5 -13.5t0.5 -6.5q0 -6 -5 -6t-8 7q-10 27 -24 31q-5 2 -11 2h-2 q-9 0 -9 -9v-157q0 -12 14 -17q5 -2 5 -6q0 -6 -6 -6q-1 0 -6 0.5t-13 1t-17 0.5q-12 0 -24 -1l-12 -1q-6 0 -6 6q0 4 5 6q15 5 15 17v157zM331 779q0 11 -3 0q-18 -68 -29 -100q-4 -11 -16 -11t-16 11q-11 28 -32 101q-3 9 -3 0l-2 -106q0 -14 14 -17q6 -1 6 -6q0 -6 -5 -6 q-1 0 -9.5 1t-16.5 1q-9 0 -18 -1l-9 -1q-6 0 -6 6q0 4 5 6q13 4 13 17l3 161q0 8 -9 11q-7 2 -7 8t7 6q1 0 8 -0.5t15 -0.5q7 0 15 0.5t9 0.5q10 0 13 -9l33 -112l32 113q2 8 12 8q1 0 8.5 -0.5t15.5 -0.5q9 0 17 1h9q7 0 7 -6q0 -5 -6 -7q-11 -4 -11 -12l3 -161 q0 -13 13 -17q6 -1 6 -6q0 -6 -6 -6q-1 0 -6 0.5t-13.5 1t-16.5 0.5q-9 0 -16.5 -0.5t-11.5 -1t-5 -0.5q-6 0 -6 6q0 4 5 6q12 4 12 17z" glyph-name="trademark" unicode="™"/><glyph d="M141 265q-15 0 -25 11.5t-10 26.5t10 26t25 11h355q15 0 25 -11t10 -26t-10 -26.5t-25 -11.5h-355z" glyph-name="minus" horiz-adv-x="600" unicode="−"/><glyph d="M213 749q0 35 -12.5 48.5t-38.5 19.5q-18 4 -18 23q0 20 19 20q2 0 48.5 -3t86.5 -3q46 0 95 3t50 3q19 0 19 -20q0 -19 -18 -23q-14 -3 -23 -6.5t-19 -10.5t-14.5 -19.5t-4.5 -31.5v-615q0 -135 -64.5 -222.5t-164.5 -87.5q-59 0 -94 22t-35 59q0 20 12.5 32.5 t32.5 12.5q17 0 30.5 -12.5t21 -28t20 -28t27.5 -12.5q26 0 35 46t9 151v683zM439 1097q27 -46 -27 -76q-66 -39 -150 -59q-24 -5 -34 12t8 34q19 21 55 51.5t70 50.5q54 30 78 -13z" glyph-name="glyph220" horiz-adv-x="462"/><glyph d="M115 498q0 20 -7 28.5t-23 12.5q-17 5 -17 21q0 15 17 18q43 7 89.5 23.5t65.5 35.5q8 8 17 8q18 0 18 -16v-640q0 -123 -55 -186.5t-144 -63.5q-57 0 -94 23t-37 59q0 20 12.5 32.5t31.5 12.5q26 0 51.5 -35t44.5 -35q12 0 17.5 9t9 40.5t3.5 95.5v557zM336 856 q27 -46 -27 -76q-66 -39 -150 -59q-24 -5 -34 12t8 34q19 21 55 51.5t70 50.5q54 30 78 -13z" glyph-name="glyph221" horiz-adv-x="311"/></font>
</defs>
</svg>
